<svg id="Capa_1" data-name="Capa 1" xmlns="http://www.w3.org/2000/svg" viewBox="0 0 144 144"><defs><style>.cls-1{fill:#fff;}.cls-2{fill:#26094f;}</style></defs><title>Sin título-1</title><circle class="cls-1" cx="72" cy="72" r="72"/><path class="cls-2" d="M63.07,62.39h2c12.06,0,24.11,0,36.17,0,5.59,0,9.53,3.49,10,8.76a9.49,9.49,0,0,1-8.9,10.35c-1.1.06-2.19,0-3.29,0h-36l5.35,6.32c1.37,1.64,2.82,3.21,4.07,4.94A9.5,9.5,0,0,1,71,105.69,9.37,9.37,0,0,1,58,105c-4.86-5.35-9.44-11-14.13-16.45q-4.22-4.94-8.4-9.9c-3.56-4.25-3.62-9.08-.09-13.27,7.21-8.54,14.5-17,21.68-25.57,5.41-6.47,14.53-4.16,16.8,2.61a9.59,9.59,0,0,1-2.09,9.77Z"/></svg>