<svg width="509" height="293" viewBox="0 0 509 293" fill="none" xmlns="http://www.w3.org/2000/svg">
<rect width="509" height="293" fill="#24091C"/>
<rect x="10.6905" y="13.6905" width="488.21" height="44.1944" stroke="#701C8D" stroke-width="1.38107"/>
<rect x="10.6905" y="103.461" width="488.21" height="44.1944" stroke="#701C8D" stroke-width="1.38107"/>
<rect x="10.6905" y="193.23" width="488.21" height="44.1944" stroke="#701C8D" stroke-width="1.38107"/>
<rect x="10.6905" y="58.5755" width="488.21" height="44.1944" stroke="#701C8D" stroke-width="1.38107"/>
<rect x="10.6905" y="148.345" width="488.21" height="44.1944" stroke="#701C8D" stroke-width="1.38107"/>
<rect x="10.6905" y="238.115" width="488.21" height="44.1944" stroke="#701C8D" stroke-width="1.38107"/>
<rect x="228.9" y="13.6905" width="53.8619" height="268.619" stroke="#701C8D" stroke-width="1.38107"/>
<rect x="10.6905" y="13.6905" width="53.8619" height="268.619" stroke="#701C8D" stroke-width="1.38107"/>
<rect x="119.796" y="13.6905" width="53.8619" height="268.619" stroke="#701C8D" stroke-width="1.38107"/>
<rect x="338.005" y="13.6905" width="53.8619" height="268.619" stroke="#701C8D" stroke-width="1.38107"/>
<rect x="65.2433" y="13.6905" width="53.8619" height="268.619" stroke="#701C8D" stroke-width="1.38107"/>
<rect x="174.348" y="13.6905" width="53.8619" height="268.619" stroke="#701C8D" stroke-width="1.38107"/>
<rect x="283.453" y="13.6905" width="53.8619" height="268.619" stroke="#701C8D" stroke-width="1.38107"/>
<rect x="392.558" y="13.6905" width="53.8619" height="268.619" stroke="#701C8D" stroke-width="1.38107"/>
<path d="M17.1426 92.0384V88.7542L32.7425 81.5473V85.5955L21.6584 90.3507L21.7838 90.134V90.6586L21.6584 90.4419L32.7425 95.1971V99.2453L17.1426 92.0384ZM41.9991 89.4042V99.6672H37.8711V76.3131H41.9079V85.1279H42.1132C42.5237 84.1396 43.1585 83.3604 44.0175 82.7902C44.8842 82.2125 45.9865 81.9236 47.3245 81.9236C48.5409 81.9236 49.6014 82.1783 50.5061 82.6876C51.4107 83.197 52.1101 83.942 52.6043 84.9227C53.106 85.9034 53.3569 87.1007 53.3569 88.5147V99.6672H49.2289V89.1533C49.2289 87.975 48.9248 87.0589 48.3166 86.4051C47.716 85.7437 46.8722 85.413 45.7851 85.413C45.0552 85.413 44.4014 85.5727 43.8237 85.892C43.2535 86.2037 42.805 86.656 42.4781 87.249C42.1588 87.8419 41.9991 88.5604 41.9991 89.4042ZM66.3111 82.1517V85.3446H56.242V82.1517H66.3111ZM58.7279 77.9552H62.8559V94.3989C62.8559 94.9538 62.9395 95.3796 63.1068 95.6761C63.2816 95.9649 63.5097 96.1626 63.791 96.269C64.0723 96.3755 64.384 96.4287 64.7261 96.4287C64.9845 96.4287 65.2202 96.4097 65.4331 96.3717C65.6535 96.3337 65.8208 96.2994 65.9348 96.269L66.6304 99.4962C66.41 99.5722 66.0945 99.6558 65.6839 99.7471C65.281 99.8383 64.7869 99.8915 64.2015 99.9067C63.1676 99.9371 62.2363 99.7813 61.4077 99.4392C60.579 99.0895 59.9214 98.5497 59.4349 97.8199C58.956 97.0901 58.7203 96.1778 58.7279 95.0831V77.9552ZM69.7635 99.6672V82.1517H73.7091V85.1279H73.9143C74.2792 84.1244 74.8836 83.3414 75.7275 82.7788C76.5713 82.2087 77.5786 81.9236 78.7494 81.9236C79.9353 81.9236 80.935 82.2125 81.7484 82.7902C82.5695 83.3604 83.1473 84.1396 83.4818 85.1279H83.6642C84.0519 84.1549 84.7057 83.3794 85.6256 82.8017C86.5531 82.2163 87.6516 81.9236 88.9212 81.9236C90.5328 81.9236 91.848 82.4329 92.8667 83.4516C93.8854 84.4703 94.3948 85.9566 94.3948 87.9104V99.6672H90.2554V88.5489C90.2554 87.4618 89.9665 86.6674 89.3887 86.1656C88.8109 85.6563 88.1039 85.4016 87.2677 85.4016C86.2718 85.4016 85.4925 85.7133 84.93 86.3367C84.375 86.9525 84.0975 87.7545 84.0975 88.7428V99.6672H80.0493V88.3779C80.0493 87.4732 79.7757 86.751 79.2283 86.2113C78.6885 85.6715 77.9815 85.4016 77.1073 85.4016C76.5143 85.4016 75.9745 85.5537 75.488 85.8578C75.0014 86.1542 74.6137 86.5762 74.3248 87.1235C74.036 87.6633 73.8915 88.2943 73.8915 89.0165V99.6672H69.7635ZM102.711 76.3131V99.6672H98.5827V76.3131H102.711ZM123.433 92.0384L107.834 99.2453V95.1971L118.918 90.4419L118.792 90.6586V90.134L118.918 90.3507L107.834 85.5955V81.5473L123.433 88.7542V92.0384Z" fill="#FF0F57"/>
<path d="M43.1505 131.215V127.93L58.7503 120.724V124.772L47.6662 129.527L47.7916 129.31V129.835L47.6662 129.618L58.7503 134.373V138.422L43.1505 131.215ZM68.007 128.58V138.844H63.8789V115.489H67.9157V124.304H68.121C68.5315 123.316 69.1663 122.537 70.0253 121.967C70.892 121.389 71.9943 121.1 73.3323 121.1C74.5487 121.1 75.6092 121.355 76.5139 121.864C77.4185 122.373 78.1179 123.118 78.6121 124.099C79.1138 125.08 79.3647 126.277 79.3647 127.691V138.844H75.2367V128.33C75.2367 127.151 74.9326 126.235 74.3244 125.581C73.7238 124.92 72.88 124.589 71.7929 124.589C71.0631 124.589 70.4093 124.749 69.8315 125.068C69.2613 125.38 68.8128 125.832 68.4859 126.425C68.1666 127.018 68.007 127.737 68.007 128.58ZM91.3268 139.186C89.5707 139.186 88.0541 138.821 86.7769 138.091C85.5073 137.353 84.5304 136.312 83.8462 134.966C83.162 133.613 82.8199 132.02 82.8199 130.188C82.8199 128.387 83.162 126.805 83.8462 125.445C84.538 124.076 85.5035 123.012 86.7427 122.252C87.9819 121.484 89.4377 121.1 91.1102 121.1C92.1897 121.1 93.2084 121.275 94.1663 121.624C95.1318 121.967 95.9832 122.499 96.7206 123.221C97.4657 123.943 98.051 124.863 98.4768 125.981C98.9025 127.09 99.1153 128.413 99.1153 129.949V131.215H84.7585V128.432H95.1584C95.1508 127.642 94.9797 126.938 94.6452 126.323C94.3107 125.699 93.8432 125.209 93.2426 124.852C92.6496 124.494 91.9578 124.316 91.1672 124.316C90.3233 124.316 89.5821 124.521 88.9435 124.931C88.305 125.334 87.807 125.866 87.4497 126.528C87.1 127.182 86.9213 127.9 86.9137 128.683V131.112C86.9137 132.131 87.1 133.005 87.4725 133.735C87.845 134.457 88.3658 135.012 89.0348 135.4C89.7038 135.78 90.4868 135.97 91.3839 135.97C91.9844 135.97 92.528 135.886 93.0145 135.719C93.5011 135.544 93.923 135.289 94.2803 134.955C94.6376 134.62 94.9075 134.206 95.09 133.712L98.9443 134.145C98.701 135.164 98.2373 136.053 97.5531 136.814C96.8765 137.566 96.0098 138.152 94.9531 138.57C93.8964 138.98 92.6876 139.186 91.3268 139.186ZM107.648 139.197C106.538 139.197 105.538 138.999 104.649 138.604C103.767 138.201 103.068 137.608 102.551 136.825C102.041 136.042 101.787 135.077 101.787 133.929C101.787 132.94 101.969 132.123 102.334 131.477C102.699 130.831 103.197 130.314 103.828 129.926C104.459 129.538 105.17 129.246 105.96 129.048C106.758 128.843 107.583 128.695 108.435 128.603C109.461 128.497 110.294 128.402 110.932 128.318C111.571 128.227 112.034 128.09 112.323 127.908C112.62 127.718 112.768 127.425 112.768 127.03V126.961C112.768 126.102 112.513 125.437 112.004 124.966C111.495 124.494 110.761 124.259 109.803 124.259C108.792 124.259 107.99 124.479 107.397 124.92C106.812 125.361 106.416 125.882 106.211 126.482L102.357 125.935C102.661 124.871 103.163 123.981 103.862 123.267C104.561 122.544 105.417 122.005 106.428 121.647C107.439 121.282 108.556 121.1 109.78 121.1C110.624 121.1 111.464 121.199 112.3 121.396C113.137 121.594 113.901 121.921 114.593 122.377C115.284 122.826 115.839 123.438 116.257 124.213C116.683 124.988 116.896 125.958 116.896 127.121V138.844H112.928V136.437H112.791C112.54 136.924 112.186 137.38 111.73 137.806C111.282 138.224 110.715 138.562 110.031 138.821C109.355 139.072 108.56 139.197 107.648 139.197ZM108.72 136.164C109.548 136.164 110.267 136 110.875 135.673C111.483 135.339 111.951 134.898 112.278 134.351C112.612 133.803 112.779 133.206 112.779 132.56V130.496C112.65 130.603 112.43 130.701 112.118 130.793C111.814 130.884 111.472 130.964 111.092 131.032C110.712 131.101 110.335 131.161 109.963 131.215C109.59 131.268 109.267 131.313 108.994 131.351C108.378 131.435 107.827 131.572 107.34 131.762C106.853 131.952 106.47 132.218 106.188 132.56C105.907 132.895 105.766 133.328 105.766 133.86C105.766 134.62 106.044 135.194 106.599 135.582C107.154 135.97 107.861 136.164 108.72 136.164ZM127.547 139.151C126.171 139.151 124.939 138.798 123.852 138.091C122.765 137.384 121.906 136.358 121.275 135.012C120.644 133.666 120.328 132.032 120.328 130.109C120.328 128.162 120.648 126.52 121.286 125.182C121.933 123.837 122.803 122.822 123.898 122.138C124.992 121.446 126.213 121.1 127.558 121.1C128.585 121.1 129.428 121.275 130.09 121.624C130.751 121.967 131.276 122.381 131.663 122.867C132.051 123.346 132.351 123.799 132.564 124.224H132.735V115.489H136.875V138.844H132.815V136.084H132.564C132.351 136.51 132.044 136.962 131.641 137.441C131.238 137.912 130.706 138.315 130.044 138.65C129.383 138.984 128.55 139.151 127.547 139.151ZM128.699 135.765C129.573 135.765 130.318 135.529 130.934 135.058C131.549 134.579 132.017 133.913 132.336 133.062C132.656 132.211 132.815 131.218 132.815 130.086C132.815 128.953 132.656 127.968 132.336 127.132C132.025 126.296 131.561 125.646 130.945 125.182C130.337 124.719 129.588 124.487 128.699 124.487C127.779 124.487 127.011 124.726 126.395 125.205C125.779 125.684 125.316 126.345 125.004 127.189C124.692 128.033 124.536 128.999 124.536 130.086C124.536 131.18 124.692 132.157 125.004 133.016C125.323 133.868 125.791 134.541 126.406 135.035C127.03 135.521 127.794 135.765 128.699 135.765ZM157.751 131.215L142.152 138.422V134.373L153.236 129.618L153.11 129.835V129.31L153.236 129.527L142.152 124.772V120.724L157.751 127.93V131.215Z" fill="#FC00C4"/>
<path d="M89.4063 179.383V176.098L105.006 168.892V172.94L93.922 177.695L94.0475 177.478V178.003L93.922 177.786L105.006 182.541V186.59L89.4063 179.383ZM110.135 187.011V169.496H114.08V172.472H114.286C114.651 171.469 115.255 170.686 116.099 170.123C116.943 169.553 117.95 169.268 119.121 169.268C120.307 169.268 121.306 169.557 122.12 170.134C122.941 170.705 123.519 171.484 123.853 172.472H124.036C124.423 171.499 125.077 170.724 125.997 170.146C126.924 169.561 128.023 169.268 129.292 169.268C130.904 169.268 132.219 169.777 133.238 170.796C134.257 171.815 134.766 173.301 134.766 175.255V187.011H130.627V175.893C130.627 174.806 130.338 174.012 129.76 173.51C129.182 173.001 128.475 172.746 127.639 172.746C126.643 172.746 125.864 173.058 125.301 173.681C124.746 174.297 124.469 175.099 124.469 176.087V187.011H120.421V175.722C120.421 174.817 120.147 174.095 119.6 173.555C119.06 173.016 118.353 172.746 117.479 172.746C116.886 172.746 116.346 172.898 115.859 173.202C115.373 173.498 114.985 173.92 114.696 174.468C114.407 175.008 114.263 175.639 114.263 176.361V187.011H110.135ZM146.708 187.354C144.952 187.354 143.435 186.989 142.158 186.259C140.889 185.521 139.912 184.48 139.228 183.134C138.543 181.781 138.201 180.188 138.201 178.356C138.201 176.555 138.543 174.973 139.228 173.613C139.919 172.244 140.885 171.18 142.124 170.42C143.363 169.652 144.819 169.268 146.492 169.268C147.571 169.268 148.59 169.443 149.548 169.792C150.513 170.134 151.365 170.667 152.102 171.389C152.847 172.111 153.432 173.031 153.858 174.148C154.284 175.258 154.497 176.581 154.497 178.117V179.383H140.14V176.6H150.54C150.532 175.81 150.361 175.106 150.027 174.491C149.692 173.867 149.225 173.377 148.624 173.02C148.031 172.662 147.339 172.484 146.549 172.484C145.705 172.484 144.964 172.689 144.325 173.099C143.686 173.502 143.188 174.034 142.831 174.696C142.481 175.35 142.303 176.068 142.295 176.851V179.28C142.295 180.299 142.481 181.173 142.854 181.903C143.226 182.625 143.747 183.18 144.416 183.568C145.085 183.948 145.868 184.138 146.765 184.138C147.366 184.138 147.909 184.054 148.396 183.887C148.882 183.712 149.304 183.457 149.662 183.123C150.019 182.788 150.289 182.374 150.471 181.88L154.326 182.313C154.082 183.332 153.619 184.221 152.934 184.982C152.258 185.734 151.391 186.32 150.335 186.738C149.278 187.148 148.069 187.354 146.708 187.354ZM166.735 169.496V172.689H156.666V169.496H166.735ZM159.152 165.299H163.28V181.743C163.28 182.298 163.364 182.724 163.531 183.02C163.706 183.309 163.934 183.507 164.215 183.613C164.497 183.72 164.808 183.773 165.15 183.773C165.409 183.773 165.645 183.754 165.857 183.716C166.078 183.678 166.245 183.644 166.359 183.613L167.055 186.84C166.834 186.916 166.519 187 166.108 187.091C165.705 187.183 165.211 187.236 164.626 187.251C163.592 187.281 162.661 187.126 161.832 186.783C161.003 186.434 160.346 185.894 159.859 185.164C159.38 184.434 159.145 183.522 159.152 182.427V165.299ZM175.228 187.365C174.118 187.365 173.118 187.167 172.229 186.772C171.347 186.369 170.648 185.776 170.131 184.993C169.621 184.21 169.367 183.245 169.367 182.097C169.367 181.108 169.549 180.291 169.914 179.645C170.279 178.999 170.777 178.482 171.408 178.094C172.039 177.706 172.75 177.414 173.54 177.216C174.339 177.011 175.163 176.862 176.015 176.771C177.041 176.665 177.874 176.57 178.512 176.486C179.151 176.395 179.615 176.258 179.903 176.076C180.2 175.886 180.348 175.593 180.348 175.198V175.129C180.348 174.27 180.094 173.605 179.584 173.134C179.075 172.662 178.341 172.427 177.383 172.427C176.372 172.427 175.57 172.647 174.977 173.088C174.392 173.529 173.997 174.05 173.791 174.65L169.937 174.103C170.241 173.039 170.743 172.149 171.442 171.434C172.142 170.712 172.997 170.172 174.008 169.815C175.019 169.45 176.137 169.268 177.361 169.268C178.204 169.268 179.044 169.367 179.881 169.564C180.717 169.762 181.481 170.089 182.173 170.545C182.865 170.994 183.42 171.606 183.838 172.381C184.263 173.156 184.476 174.126 184.476 175.289V187.011H180.508V184.605H180.371C180.12 185.092 179.767 185.548 179.31 185.974C178.862 186.392 178.296 186.73 177.611 186.989C176.935 187.24 176.14 187.365 175.228 187.365ZM176.3 184.332C177.129 184.332 177.847 184.168 178.455 183.841C179.063 183.507 179.531 183.066 179.858 182.519C180.192 181.971 180.36 181.374 180.36 180.728V178.664C180.23 178.771 180.01 178.869 179.698 178.961C179.394 179.052 179.052 179.132 178.672 179.2C178.292 179.269 177.915 179.329 177.543 179.383C177.17 179.436 176.847 179.481 176.574 179.519C175.958 179.603 175.407 179.74 174.92 179.93C174.434 180.12 174.05 180.386 173.768 180.728C173.487 181.063 173.347 181.496 173.347 182.028C173.347 182.788 173.624 183.362 174.179 183.75C174.734 184.138 175.441 184.332 176.3 184.332ZM200.72 176.748V187.011H196.592V169.496H200.538V172.472H200.743C201.146 171.491 201.788 170.712 202.67 170.134C203.56 169.557 204.658 169.268 205.966 169.268C207.175 169.268 208.228 169.526 209.125 170.043C210.029 170.56 210.729 171.309 211.223 172.29C211.725 173.27 211.972 174.46 211.964 175.859V187.011H207.836V176.498C207.836 175.327 207.532 174.411 206.924 173.749C206.323 173.088 205.491 172.757 204.426 172.757C203.704 172.757 203.062 172.917 202.499 173.236C201.944 173.548 201.507 174 201.188 174.593C200.876 175.186 200.72 175.905 200.72 176.748ZM221.201 187.365C220.091 187.365 219.091 187.167 218.202 186.772C217.32 186.369 216.62 185.776 216.103 184.993C215.594 184.21 215.339 183.245 215.339 182.097C215.339 181.108 215.522 180.291 215.887 179.645C216.252 178.999 216.75 178.482 217.381 178.094C218.012 177.706 218.722 177.414 219.513 177.216C220.311 177.011 221.136 176.862 221.988 176.771C223.014 176.665 223.846 176.57 224.485 176.486C225.124 176.395 225.587 176.258 225.876 176.076C226.173 175.886 226.321 175.593 226.321 175.198V175.129C226.321 174.27 226.066 173.605 225.557 173.134C225.048 172.662 224.314 172.427 223.356 172.427C222.345 172.427 221.543 172.647 220.95 173.088C220.365 173.529 219.969 174.05 219.764 174.65L215.91 174.103C216.214 173.039 216.715 172.149 217.415 171.434C218.114 170.712 218.97 170.172 219.981 169.815C220.992 169.45 222.109 169.268 223.333 169.268C224.177 169.268 225.017 169.367 225.853 169.564C226.69 169.762 227.454 170.089 228.145 170.545C228.837 170.994 229.392 171.606 229.81 172.381C230.236 173.156 230.449 174.126 230.449 175.289V187.011H226.481V184.605H226.344C226.093 185.092 225.739 185.548 225.283 185.974C224.835 186.392 224.268 186.73 223.584 186.989C222.907 187.24 222.113 187.365 221.201 187.365ZM222.273 184.332C223.101 184.332 223.82 184.168 224.428 183.841C225.036 183.507 225.504 183.066 225.831 182.519C226.165 181.971 226.332 181.374 226.332 180.728V178.664C226.203 178.771 225.983 178.869 225.671 178.961C225.367 179.052 225.025 179.132 224.645 179.2C224.264 179.269 223.888 179.329 223.516 179.383C223.143 179.436 222.82 179.481 222.546 179.519C221.931 179.603 221.379 179.74 220.893 179.93C220.406 180.12 220.022 180.386 219.741 180.728C219.46 181.063 219.319 181.496 219.319 182.028C219.319 182.788 219.597 183.362 220.152 183.75C220.707 184.138 221.414 184.332 222.273 184.332ZM234.6 187.011V169.496H238.545V172.472H238.751C239.115 171.469 239.72 170.686 240.564 170.123C241.408 169.553 242.415 169.268 243.586 169.268C244.772 169.268 245.771 169.557 246.585 170.134C247.406 170.705 247.983 171.484 248.318 172.472H248.5C248.888 171.499 249.542 170.724 250.462 170.146C251.389 169.561 252.488 169.268 253.757 169.268C255.369 169.268 256.684 169.777 257.703 170.796C258.722 171.815 259.231 173.301 259.231 175.255V187.011H255.092V175.893C255.092 174.806 254.803 174.012 254.225 173.51C253.647 173.001 252.94 172.746 252.104 172.746C251.108 172.746 250.329 173.058 249.766 173.681C249.211 174.297 248.934 175.099 248.934 176.087V187.011H244.886V175.722C244.886 174.817 244.612 174.095 244.065 173.555C243.525 173.016 242.818 172.746 241.943 172.746C241.351 172.746 240.811 172.898 240.324 173.202C239.838 173.498 239.45 173.92 239.161 174.468C238.872 175.008 238.728 175.639 238.728 176.361V187.011H234.6ZM271.173 187.354C269.417 187.354 267.9 186.989 266.623 186.259C265.354 185.521 264.377 184.48 263.693 183.134C263.008 181.781 262.666 180.188 262.666 178.356C262.666 176.555 263.008 174.973 263.693 173.613C264.384 172.244 265.35 171.18 266.589 170.42C267.828 169.652 269.284 169.268 270.957 169.268C272.036 169.268 273.055 169.443 274.013 169.792C274.978 170.134 275.83 170.667 276.567 171.389C277.312 172.111 277.897 173.031 278.323 174.148C278.749 175.258 278.962 176.581 278.962 178.117V179.383H264.605V176.6H275.005C274.997 175.81 274.826 175.106 274.492 174.491C274.157 173.867 273.69 173.377 273.089 173.02C272.496 172.662 271.804 172.484 271.014 172.484C270.17 172.484 269.428 172.689 268.79 173.099C268.151 173.502 267.653 174.034 267.296 174.696C266.946 175.35 266.768 176.068 266.76 176.851V179.28C266.76 180.299 266.946 181.173 267.319 181.903C267.691 182.625 268.212 183.18 268.881 183.568C269.55 183.948 270.333 184.138 271.23 184.138C271.831 184.138 272.374 184.054 272.861 183.887C273.347 183.712 273.769 183.457 274.127 183.123C274.484 182.788 274.754 182.374 274.936 181.88L278.791 182.313C278.547 183.332 278.084 184.221 277.399 184.982C276.723 185.734 275.856 186.32 274.799 186.738C273.743 187.148 272.534 187.354 271.173 187.354ZM283.549 175.859V172.335H298.727V175.859H283.549ZM283.549 183.157V179.633H298.727V183.157H283.549ZM307.561 163.657V165.984C307.561 166.653 307.432 167.348 307.174 168.07C306.923 168.785 306.577 169.469 306.136 170.123C305.695 170.769 305.193 171.324 304.631 171.788L302.715 170.545C303.133 169.914 303.498 169.234 303.81 168.504C304.121 167.766 304.277 166.934 304.277 166.006V163.657H307.561ZM313.32 163.657V165.984C313.32 166.653 313.191 167.348 312.932 168.07C312.681 168.785 312.336 169.469 311.895 170.123C311.454 170.769 310.956 171.324 310.401 171.788L308.485 170.545C308.896 169.914 309.257 169.234 309.568 168.504C309.88 167.766 310.036 166.934 310.036 166.006V163.657H313.32ZM326.009 169.496V172.689H315.655V169.496H326.009ZM318.243 187.011V167.842C318.243 166.664 318.487 165.683 318.973 164.9C319.467 164.117 320.129 163.532 320.957 163.144C321.786 162.757 322.706 162.563 323.717 162.563C324.432 162.563 325.066 162.62 325.621 162.734C326.176 162.848 326.587 162.95 326.853 163.042L326.032 166.235C325.857 166.181 325.637 166.128 325.371 166.075C325.104 166.014 324.808 165.984 324.481 165.984C323.713 165.984 323.17 166.17 322.85 166.542C322.539 166.907 322.383 167.432 322.383 168.116V187.011H318.243ZM329.242 187.011V169.496H333.245V172.415H333.427C333.746 171.404 334.294 170.625 335.069 170.077C335.852 169.523 336.745 169.245 337.749 169.245C337.977 169.245 338.232 169.256 338.513 169.279C338.802 169.294 339.041 169.321 339.231 169.359V173.156C339.057 173.096 338.779 173.042 338.399 172.997C338.026 172.944 337.665 172.917 337.316 172.917C336.563 172.917 335.886 173.08 335.286 173.407C334.693 173.727 334.225 174.171 333.883 174.741C333.541 175.312 333.37 175.969 333.37 176.714V187.011H329.242ZM348.893 187.354C347.182 187.354 345.7 186.977 344.446 186.225C343.191 185.472 342.218 184.419 341.526 183.066C340.842 181.713 340.5 180.131 340.5 178.322C340.5 176.513 340.842 174.928 341.526 173.567C342.218 172.206 343.191 171.149 344.446 170.397C345.7 169.644 347.182 169.268 348.893 169.268C350.603 169.268 352.086 169.644 353.34 170.397C354.595 171.149 355.564 172.206 356.248 173.567C356.94 174.928 357.286 176.513 357.286 178.322C357.286 180.131 356.94 181.713 356.248 183.066C355.564 184.419 354.595 185.472 353.34 186.225C352.086 186.977 350.603 187.354 348.893 187.354ZM348.916 184.047C349.843 184.047 350.619 183.792 351.242 183.283C351.865 182.766 352.329 182.074 352.633 181.207C352.945 180.341 353.101 179.375 353.101 178.311C353.101 177.239 352.945 176.269 352.633 175.403C352.329 174.529 351.865 173.833 351.242 173.316C350.619 172.799 349.843 172.541 348.916 172.541C347.965 172.541 347.175 172.799 346.544 173.316C345.92 173.833 345.453 174.529 345.141 175.403C344.837 176.269 344.685 177.239 344.685 178.311C344.685 179.375 344.837 180.341 345.141 181.207C345.453 182.074 345.92 182.766 346.544 183.283C347.175 183.792 347.965 184.047 348.916 184.047ZM364.917 176.748V187.011H360.789V169.496H364.735V172.472H364.94C365.343 171.491 365.986 170.712 366.867 170.134C367.757 169.557 368.855 169.268 370.163 169.268C371.372 169.268 372.425 169.526 373.322 170.043C374.226 170.56 374.926 171.309 375.42 172.29C375.922 173.27 376.169 174.46 376.161 175.859V187.011H372.033V176.498C372.033 175.327 371.729 174.411 371.121 173.749C370.52 173.088 369.688 172.757 368.624 172.757C367.901 172.757 367.259 172.917 366.696 173.236C366.141 173.548 365.704 174 365.385 174.593C365.073 175.186 364.917 175.905 364.917 176.748ZM389.104 169.496V172.689H379.035V169.496H389.104ZM381.521 165.299H385.649V181.743C385.649 182.298 385.732 182.724 385.9 183.02C386.075 183.309 386.303 183.507 386.584 183.613C386.865 183.72 387.177 183.773 387.519 183.773C387.777 183.773 388.013 183.754 388.226 183.716C388.446 183.678 388.614 183.644 388.728 183.613L389.423 186.84C389.203 186.916 388.887 187 388.477 187.091C388.074 187.183 387.58 187.236 386.994 187.251C385.96 187.281 385.029 187.126 384.201 186.783C383.372 186.434 382.714 185.894 382.228 185.164C381.749 184.434 381.513 183.522 381.521 182.427V165.299ZM400.123 187.354C398.366 187.354 396.85 186.989 395.573 186.259C394.303 185.521 393.326 184.48 392.642 183.134C391.958 181.781 391.616 180.188 391.616 178.356C391.616 176.555 391.958 174.973 392.642 173.613C393.334 172.244 394.299 171.18 395.538 170.42C396.778 169.652 398.233 169.268 399.906 169.268C400.985 169.268 402.004 169.443 402.962 169.792C403.927 170.134 404.779 170.667 405.516 171.389C406.261 172.111 406.847 173.031 407.272 174.148C407.698 175.258 407.911 176.581 407.911 178.117V179.383H393.554V176.6H403.954C403.946 175.81 403.775 175.106 403.441 174.491C403.106 173.867 402.639 173.377 402.038 173.02C401.445 172.662 400.753 172.484 399.963 172.484C399.119 172.484 398.378 172.689 397.739 173.099C397.101 173.502 396.603 174.034 396.245 174.696C395.896 175.35 395.717 176.068 395.709 176.851V179.28C395.709 180.299 395.896 181.173 396.268 181.903C396.641 182.625 397.161 183.18 397.83 183.568C398.499 183.948 399.282 184.138 400.18 184.138C400.78 184.138 401.324 184.054 401.81 183.887C402.297 183.712 402.719 183.457 403.076 183.123C403.433 182.788 403.703 182.374 403.886 181.88L407.74 182.313C407.497 183.332 407.033 184.221 406.349 184.982C405.672 185.734 404.805 186.32 403.749 186.738C402.692 187.148 401.483 187.354 400.123 187.354ZM415.531 176.748V187.011H411.403V169.496H415.349V172.472H415.554C415.957 171.491 416.599 170.712 417.481 170.134C418.371 169.557 419.469 169.268 420.777 169.268C421.986 169.268 423.039 169.526 423.936 170.043C424.84 170.56 425.54 171.309 426.034 172.29C426.536 173.27 426.783 174.46 426.775 175.859V187.011H422.647V176.498C422.647 175.327 422.343 174.411 421.735 173.749C421.134 173.088 420.302 172.757 419.237 172.757C418.515 172.757 417.873 172.917 417.31 173.236C416.755 173.548 416.318 174 415.999 174.593C415.687 175.186 415.531 175.905 415.531 176.748ZM437.471 187.319C436.095 187.319 434.864 186.966 433.777 186.259C432.69 185.552 431.831 184.526 431.2 183.18C430.569 181.834 430.253 180.2 430.253 178.276C430.253 176.33 430.572 174.688 431.211 173.35C431.857 172.005 432.728 170.99 433.822 170.306C434.917 169.614 436.137 169.268 437.483 169.268C438.509 169.268 439.353 169.443 440.014 169.792C440.676 170.134 441.2 170.549 441.588 171.035C441.976 171.514 442.276 171.967 442.489 172.392H442.66V163.657H446.799V187.011H442.74V184.252H442.489C442.276 184.678 441.968 185.13 441.565 185.609C441.162 186.08 440.63 186.483 439.969 186.818C439.307 187.152 438.475 187.319 437.471 187.319ZM438.623 183.933C439.497 183.933 440.242 183.697 440.858 183.226C441.474 182.747 441.942 182.081 442.261 181.23C442.58 180.379 442.74 179.386 442.74 178.254C442.74 177.121 442.58 176.136 442.261 175.3C441.949 174.464 441.485 173.814 440.87 173.35C440.261 172.886 439.513 172.655 438.623 172.655C437.703 172.655 436.935 172.894 436.32 173.373C435.704 173.852 435.24 174.513 434.928 175.357C434.617 176.201 434.461 177.167 434.461 178.254C434.461 179.348 434.617 180.325 434.928 181.184C435.248 182.036 435.715 182.709 436.331 183.203C436.954 183.689 437.718 183.933 438.623 183.933ZM454.699 163.657V165.984C454.699 166.653 454.57 167.348 454.311 168.07C454.06 168.785 453.715 169.469 453.274 170.123C452.833 170.769 452.331 171.324 451.768 171.788L449.853 170.545C450.271 169.914 450.636 169.234 450.947 168.504C451.259 167.766 451.415 166.934 451.415 166.006V163.657H454.699ZM460.458 163.657V165.984C460.458 166.653 460.329 167.348 460.07 168.07C459.819 168.785 459.473 169.469 459.032 170.123C458.591 170.769 458.093 171.324 457.538 171.788L455.623 170.545C456.033 169.914 456.394 169.234 456.706 168.504C457.018 167.766 457.174 166.934 457.174 166.006V163.657H460.458ZM96.1685 226.354C94.42 226.354 92.9186 225.97 91.6642 225.202C90.4174 224.434 89.4557 223.373 88.7791 222.02C88.1101 220.659 87.7756 219.093 87.7756 217.322C87.7756 215.543 88.1177 213.973 88.8019 212.613C89.4861 211.244 90.4516 210.18 91.6984 209.42C92.9528 208.652 94.4352 208.268 96.1457 208.268C97.5673 208.268 98.8255 208.53 99.9202 209.055C101.023 209.572 101.901 210.305 102.554 211.256C103.208 212.198 103.581 213.301 103.672 214.562H99.7264C99.5667 213.719 99.1866 213.015 98.586 212.453C97.9931 211.883 97.1986 211.598 96.2027 211.598C95.3589 211.598 94.6177 211.826 93.9791 212.282C93.3405 212.73 92.8425 213.377 92.4852 214.22C92.1355 215.064 91.9607 216.075 91.9607 217.254C91.9607 218.447 92.1355 219.474 92.4852 220.333C92.8349 221.184 93.3253 221.842 93.9563 222.305C94.5948 222.762 95.3437 222.99 96.2027 222.99C96.8109 222.99 97.3545 222.876 97.8334 222.647C98.3199 222.412 98.7267 222.074 99.0536 221.633C99.3805 221.192 99.6047 220.656 99.7264 220.025H103.672C103.573 221.264 103.208 222.362 102.577 223.32C101.946 224.271 101.087 225.016 100 225.555C98.9129 226.087 97.6357 226.354 96.1685 226.354ZM114.702 226.354C112.991 226.354 111.509 225.977 110.255 225.225C109 224.472 108.027 223.419 107.335 222.066C106.651 220.713 106.309 219.131 106.309 217.322C106.309 215.513 106.651 213.928 107.335 212.567C108.027 211.206 109 210.149 110.255 209.397C111.509 208.644 112.991 208.268 114.702 208.268C116.412 208.268 117.895 208.644 119.149 209.397C120.404 210.149 121.373 211.206 122.057 212.567C122.749 213.928 123.095 215.513 123.095 217.322C123.095 219.131 122.749 220.713 122.057 222.066C121.373 223.419 120.404 224.472 119.149 225.225C117.895 225.977 116.412 226.354 114.702 226.354ZM114.725 223.047C115.652 223.047 116.428 222.792 117.051 222.283C117.674 221.766 118.138 221.074 118.442 220.207C118.754 219.341 118.91 218.375 118.91 217.311C118.91 216.239 118.754 215.269 118.442 214.403C118.138 213.529 117.674 212.833 117.051 212.316C116.428 211.799 115.652 211.541 114.725 211.541C113.774 211.541 112.984 211.799 112.353 212.316C111.729 212.833 111.262 213.529 110.95 214.403C110.646 215.269 110.494 216.239 110.494 217.311C110.494 218.375 110.646 219.341 110.95 220.207C111.262 221.074 111.729 221.766 112.353 222.283C112.984 222.792 113.774 223.047 114.725 223.047ZM130.726 215.748V226.011H126.598V208.496H130.544V211.472H130.749C131.152 210.491 131.795 209.712 132.676 209.134C133.566 208.557 134.664 208.268 135.972 208.268C137.181 208.268 138.234 208.526 139.131 209.043C140.035 209.56 140.735 210.309 141.229 211.29C141.731 212.27 141.978 213.46 141.97 214.859V226.011H137.842V215.498C137.842 214.327 137.538 213.411 136.93 212.749C136.329 212.088 135.497 211.757 134.433 211.757C133.71 211.757 133.068 211.917 132.505 212.236C131.95 212.548 131.513 213 131.194 213.593C130.882 214.186 130.726 214.905 130.726 215.748ZM154.913 208.496V211.689H144.844V208.496H154.913ZM147.33 204.299H151.458V220.743C151.458 221.298 151.541 221.724 151.709 222.02C151.883 222.309 152.112 222.507 152.393 222.613C152.674 222.72 152.986 222.773 153.328 222.773C153.586 222.773 153.822 222.754 154.035 222.716C154.255 222.678 154.423 222.644 154.537 222.613L155.232 225.84C155.012 225.916 154.696 226 154.286 226.091C153.883 226.183 153.389 226.236 152.803 226.251C151.769 226.281 150.838 226.126 150.01 225.783C149.181 225.434 148.523 224.894 148.037 224.164C147.558 223.434 147.322 222.522 147.33 221.427V204.299ZM165.931 226.354C164.175 226.354 162.659 225.989 161.382 225.259C160.112 224.521 159.135 223.48 158.451 222.134C157.767 220.781 157.425 219.188 157.425 217.356C157.425 215.555 157.767 213.973 158.451 212.613C159.143 211.244 160.108 210.18 161.347 209.42C162.586 208.652 164.042 208.268 165.715 208.268C166.794 208.268 167.813 208.443 168.771 208.792C169.736 209.134 170.588 209.667 171.325 210.389C172.07 211.111 172.656 212.031 173.081 213.148C173.507 214.258 173.72 215.581 173.72 217.117V218.383H159.363V215.6H169.763C169.755 214.81 169.584 214.106 169.25 213.491C168.915 212.867 168.448 212.377 167.847 212.02C167.254 211.662 166.562 211.484 165.772 211.484C164.928 211.484 164.187 211.689 163.548 212.099C162.91 212.502 162.412 213.034 162.054 213.696C161.705 214.35 161.526 215.068 161.518 215.851V218.28C161.518 219.299 161.705 220.173 162.077 220.903C162.45 221.625 162.97 222.18 163.639 222.568C164.308 222.948 165.091 223.138 165.989 223.138C166.589 223.138 167.133 223.054 167.619 222.887C168.106 222.712 168.528 222.457 168.885 222.123C169.242 221.788 169.512 221.374 169.695 220.88L173.549 221.313C173.306 222.332 172.842 223.221 172.158 223.982C171.481 224.734 170.614 225.32 169.558 225.738C168.501 226.148 167.292 226.354 165.931 226.354ZM181.34 215.748V226.011H177.212V208.496H181.158V211.472H181.363C181.766 210.491 182.408 209.712 183.29 209.134C184.18 208.557 185.278 208.268 186.586 208.268C187.795 208.268 188.848 208.526 189.745 209.043C190.649 209.56 191.349 210.309 191.843 211.29C192.345 212.27 192.592 213.46 192.584 214.859V226.011H188.456V215.498C188.456 214.327 188.152 213.411 187.544 212.749C186.943 212.088 186.111 211.757 185.046 211.757C184.324 211.757 183.682 211.917 183.119 212.236C182.564 212.548 182.127 213 181.808 213.593C181.496 214.186 181.34 214.905 181.34 215.748ZM205.527 208.496V211.689H195.458V208.496H205.527ZM197.944 204.299H202.072V220.743C202.072 221.298 202.155 221.724 202.322 222.02C202.497 222.309 202.725 222.507 203.007 222.613C203.288 222.72 203.6 222.773 203.942 222.773C204.2 222.773 204.436 222.754 204.649 222.716C204.869 222.678 205.036 222.644 205.151 222.613L205.846 225.84C205.626 225.916 205.31 226 204.9 226.091C204.497 226.183 204.003 226.236 203.417 226.251C202.383 226.281 201.452 226.126 200.623 225.783C199.795 225.434 199.137 224.894 198.651 224.164C198.172 223.434 197.936 222.522 197.944 221.427V204.299ZM210.074 214.859V211.335H225.252V214.859H210.074ZM210.074 222.157V218.633H225.252V222.157H210.074ZM234.087 202.657V204.984C234.087 205.653 233.957 206.348 233.699 207.07C233.448 207.785 233.102 208.469 232.661 209.123C232.22 209.769 231.718 210.324 231.156 210.788L229.24 209.545C229.658 208.914 230.023 208.234 230.335 207.504C230.647 206.766 230.802 205.934 230.802 205.006V202.657H234.087ZM239.845 202.657V204.984C239.845 205.653 239.716 206.348 239.458 207.07C239.207 207.785 238.861 208.469 238.42 209.123C237.979 209.769 237.481 210.324 236.926 210.788L235.01 209.545C235.421 208.914 235.782 208.234 236.094 207.504C236.405 206.766 236.561 205.934 236.561 205.006V202.657H239.845ZM249.273 232.945C247.791 232.945 246.517 232.743 245.453 232.34C244.389 231.945 243.533 231.413 242.887 230.744C242.241 230.075 241.792 229.334 241.542 228.52L245.259 227.619C245.426 227.961 245.67 228.3 245.989 228.634C246.308 228.976 246.738 229.258 247.277 229.478C247.825 229.706 248.513 229.82 249.341 229.82C250.512 229.82 251.481 229.535 252.249 228.965C253.017 228.402 253.401 227.475 253.401 226.183V222.864H253.196C252.983 223.29 252.671 223.727 252.261 224.176C251.858 224.624 251.322 225 250.653 225.304C249.991 225.609 249.159 225.761 248.155 225.761C246.81 225.761 245.59 225.445 244.495 224.814C243.408 224.176 242.541 223.225 241.895 221.963C241.256 220.694 240.937 219.105 240.937 217.197C240.937 215.273 241.256 213.65 241.895 212.327C242.541 210.997 243.412 209.99 244.506 209.306C245.601 208.614 246.821 208.268 248.167 208.268C249.193 208.268 250.037 208.443 250.698 208.792C251.367 209.134 251.9 209.549 252.295 210.035C252.69 210.514 252.991 210.967 253.196 211.392H253.424V208.496H257.495V226.297C257.495 227.794 257.138 229.033 256.423 230.014C255.708 230.995 254.731 231.728 253.492 232.215C252.253 232.701 250.847 232.945 249.273 232.945ZM249.307 222.522C250.181 222.522 250.927 222.309 251.542 221.883C252.158 221.458 252.626 220.846 252.945 220.048C253.264 219.249 253.424 218.291 253.424 217.174C253.424 216.072 253.264 215.106 252.945 214.277C252.633 213.449 252.169 212.806 251.554 212.35C250.946 211.886 250.197 211.655 249.307 211.655C248.387 211.655 247.62 211.894 247.004 212.373C246.388 212.852 245.924 213.51 245.613 214.346C245.301 215.174 245.145 216.117 245.145 217.174C245.145 218.246 245.301 219.185 245.613 219.99C245.932 220.789 246.399 221.412 247.015 221.861C247.639 222.302 248.403 222.522 249.307 222.522ZM261.726 226.011V208.496H265.728V211.415H265.911C266.23 210.404 266.777 209.625 267.553 209.077C268.336 208.523 269.229 208.245 270.232 208.245C270.46 208.245 270.715 208.256 270.996 208.279C271.285 208.294 271.525 208.321 271.715 208.359V212.156C271.54 212.096 271.263 212.042 270.882 211.997C270.51 211.944 270.149 211.917 269.799 211.917C269.046 211.917 268.37 212.08 267.769 212.407C267.176 212.727 266.709 213.171 266.367 213.741C266.025 214.312 265.854 214.969 265.854 215.714V226.011H261.726ZM281.49 226.354C279.734 226.354 278.218 225.989 276.94 225.259C275.671 224.521 274.694 223.48 274.01 222.134C273.326 220.781 272.983 219.188 272.983 217.356C272.983 215.555 273.326 213.973 274.01 212.613C274.702 211.244 275.667 210.18 276.906 209.42C278.145 208.652 279.601 208.268 281.274 208.268C282.353 208.268 283.372 208.443 284.33 208.792C285.295 209.134 286.147 209.667 286.884 210.389C287.629 211.111 288.215 212.031 288.64 213.148C289.066 214.258 289.279 215.581 289.279 217.117V218.383H274.922V215.6H285.322C285.314 214.81 285.143 214.106 284.809 213.491C284.474 212.867 284.007 212.377 283.406 212.02C282.813 211.662 282.121 211.484 281.331 211.484C280.487 211.484 279.746 211.689 279.107 212.099C278.468 212.502 277.971 213.034 277.613 213.696C277.264 214.35 277.085 215.068 277.077 215.851V218.28C277.077 219.299 277.264 220.173 277.636 220.903C278.009 221.625 278.529 222.18 279.198 222.568C279.867 222.948 280.65 223.138 281.547 223.138C282.148 223.138 282.692 223.054 283.178 222.887C283.665 222.712 284.087 222.457 284.444 222.123C284.801 221.788 285.071 221.374 285.253 220.88L289.108 221.313C288.865 222.332 288.401 223.221 287.717 223.982C287.04 224.734 286.173 225.32 285.117 225.738C284.06 226.148 282.851 226.354 281.49 226.354ZM297.811 226.365C296.702 226.365 295.702 226.167 294.812 225.772C293.931 225.369 293.231 224.776 292.714 223.993C292.205 223.21 291.95 222.245 291.95 221.097C291.95 220.108 292.133 219.291 292.497 218.645C292.862 217.999 293.36 217.482 293.991 217.094C294.622 216.706 295.333 216.414 296.124 216.216C296.922 216.011 297.747 215.862 298.598 215.771C299.625 215.665 300.457 215.57 301.096 215.486C301.734 215.395 302.198 215.258 302.487 215.076C302.783 214.886 302.932 214.593 302.932 214.198V214.129C302.932 213.27 302.677 212.605 302.168 212.134C301.658 211.662 300.925 211.427 299.967 211.427C298.956 211.427 298.154 211.647 297.561 212.088C296.975 212.529 296.58 213.05 296.375 213.65L292.52 213.103C292.824 212.039 293.326 211.149 294.026 210.434C294.725 209.712 295.58 209.172 296.591 208.815C297.602 208.45 298.72 208.268 299.944 208.268C300.788 208.268 301.628 208.367 302.464 208.564C303.3 208.762 304.064 209.089 304.756 209.545C305.448 209.994 306.003 210.606 306.421 211.381C306.847 212.156 307.06 213.126 307.06 214.289V226.011H303.091V223.605H302.954C302.704 224.092 302.35 224.548 301.894 224.974C301.445 225.392 300.879 225.73 300.195 225.989C299.518 226.24 298.724 226.365 297.811 226.365ZM298.883 223.332C299.712 223.332 300.43 223.168 301.039 222.841C301.647 222.507 302.114 222.066 302.441 221.519C302.776 220.971 302.943 220.374 302.943 219.728V217.664C302.814 217.771 302.593 217.869 302.282 217.961C301.977 218.052 301.635 218.132 301.255 218.2C300.875 218.269 300.499 218.329 300.126 218.383C299.754 218.436 299.431 218.481 299.157 218.519C298.541 218.603 297.99 218.74 297.504 218.93C297.017 219.12 296.633 219.386 296.352 219.728C296.071 220.063 295.93 220.496 295.93 221.028C295.93 221.788 296.207 222.362 296.762 222.75C297.317 223.138 298.024 223.332 298.883 223.332ZM319.957 208.496V211.689H309.888V208.496H319.957ZM312.374 204.299H316.502V220.743C316.502 221.298 316.585 221.724 316.752 222.02C316.927 222.309 317.155 222.507 317.437 222.613C317.718 222.72 318.03 222.773 318.372 222.773C318.63 222.773 318.866 222.754 319.079 222.716C319.299 222.678 319.466 222.644 319.581 222.613L320.276 225.84C320.056 225.916 319.74 226 319.33 226.091C318.927 226.183 318.433 226.236 317.847 226.251C316.813 226.281 315.882 226.126 315.053 225.783C314.225 225.434 313.567 224.894 313.081 224.164C312.602 223.434 312.366 222.522 312.374 221.427V204.299ZM345.218 213.126L341.455 213.536C341.349 213.156 341.162 212.799 340.896 212.464C340.638 212.13 340.288 211.86 339.847 211.655C339.406 211.449 338.866 211.347 338.228 211.347C337.369 211.347 336.647 211.533 336.061 211.906C335.483 212.278 335.198 212.761 335.206 213.354C335.198 213.863 335.385 214.277 335.765 214.597C336.152 214.916 336.791 215.178 337.681 215.384L340.668 216.022C342.325 216.379 343.557 216.946 344.363 217.721C345.176 218.497 345.587 219.512 345.594 220.766C345.587 221.868 345.264 222.841 344.625 223.685C343.994 224.521 343.116 225.175 341.991 225.647C340.866 226.118 339.573 226.354 338.114 226.354C335.97 226.354 334.244 225.905 332.937 225.008C331.629 224.103 330.85 222.845 330.599 221.233L334.624 220.846C334.807 221.636 335.195 222.233 335.788 222.636C336.381 223.039 337.152 223.24 338.102 223.24C339.083 223.24 339.87 223.039 340.463 222.636C341.064 222.233 341.364 221.735 341.364 221.142C341.364 220.64 341.17 220.226 340.782 219.899C340.402 219.572 339.809 219.321 339.003 219.147L336.016 218.519C334.336 218.17 333.093 217.581 332.287 216.752C331.481 215.916 331.082 214.859 331.089 213.582C331.082 212.502 331.374 211.567 331.967 210.777C332.568 209.978 333.4 209.363 334.465 208.929C335.537 208.488 336.772 208.268 338.171 208.268C340.223 208.268 341.839 208.705 343.017 209.579C344.203 210.453 344.937 211.636 345.218 213.126ZM352.761 220.515L352.75 215.532H353.411L359.706 208.496H364.53L356.787 217.117H355.932L352.761 220.515ZM348.998 226.011V202.657H353.126V226.011H348.998ZM359.991 226.011L354.29 218.041L357.072 215.133L364.929 226.011H359.991ZM367.281 226.011V208.496H371.409V226.011H367.281ZM369.356 206.01C368.702 206.01 368.14 205.793 367.669 205.36C367.197 204.919 366.962 204.391 366.962 203.775C366.962 203.152 367.197 202.623 367.669 202.19C368.14 201.749 368.702 201.528 369.356 201.528C370.018 201.528 370.58 201.749 371.044 202.19C371.515 202.623 371.751 203.152 371.751 203.775C371.751 204.391 371.515 204.919 371.044 205.36C370.58 205.793 370.018 206.01 369.356 206.01ZM379.782 202.657V226.011H375.654V202.657H379.782ZM388.155 202.657V226.011H384.027V202.657H388.155ZM406.243 213.126L402.48 213.536C402.374 213.156 402.187 212.799 401.921 212.464C401.663 212.13 401.313 211.86 400.872 211.655C400.431 211.449 399.892 211.347 399.253 211.347C398.394 211.347 397.672 211.533 397.086 211.906C396.509 212.278 396.224 212.761 396.231 213.354C396.224 213.863 396.41 214.277 396.79 214.597C397.178 214.916 397.816 215.178 398.706 215.384L401.693 216.022C403.351 216.379 404.582 216.946 405.388 217.721C406.201 218.497 406.612 219.512 406.62 220.766C406.612 221.868 406.289 222.841 405.65 223.685C405.019 224.521 404.141 225.175 403.016 225.647C401.891 226.118 400.599 226.354 399.139 226.354C396.995 226.354 395.269 225.905 393.962 225.008C392.654 224.103 391.875 222.845 391.624 221.233L395.65 220.846C395.832 221.636 396.22 222.233 396.813 222.636C397.406 223.039 398.177 223.24 399.128 223.24C400.108 223.24 400.895 223.039 401.488 222.636C402.089 222.233 402.389 221.735 402.389 221.142C402.389 220.64 402.195 220.226 401.807 219.899C401.427 219.572 400.834 219.321 400.028 219.147L397.041 218.519C395.361 218.17 394.118 217.581 393.312 216.752C392.506 215.916 392.107 214.859 392.115 213.582C392.107 212.502 392.4 211.567 392.993 210.777C393.593 209.978 394.426 209.363 395.49 208.929C396.562 208.488 397.797 208.268 399.196 208.268C401.249 208.268 402.864 208.705 404.042 209.579C405.228 210.453 405.962 211.636 406.243 213.126ZM413.524 202.657V204.984C413.524 205.653 413.395 206.348 413.137 207.07C412.886 207.785 412.54 208.469 412.099 209.123C411.658 209.769 411.156 210.324 410.594 210.788L408.678 209.545C409.096 208.914 409.461 208.234 409.773 207.504C410.084 206.766 410.24 205.934 410.24 205.006V202.657H413.524ZM419.283 202.657V204.984C419.283 205.653 419.154 206.348 418.895 207.07C418.644 207.785 418.299 208.469 417.858 209.123C417.417 209.769 416.919 210.324 416.364 210.788L414.448 209.545C414.859 208.914 415.22 208.234 415.531 207.504C415.843 206.766 415.999 205.934 415.999 205.006V202.657H419.283ZM439.578 218.383L423.978 225.59V221.541L435.062 216.786L434.937 217.003V216.478L435.062 216.695L423.978 211.94V207.892L439.578 215.098V218.383Z" fill="#FC00C4"/>
<path d="M43.1505 266.727V263.443L58.7503 256.236V260.284L47.6662 265.039L47.7916 264.822V265.347L47.6662 265.13L58.7503 269.886V273.934L43.1505 266.727ZM73.4121 249.907L65.8859 277.868H62.2711L69.7973 249.907H73.4121ZM80.1743 264.093V274.356H76.0463V251.002H80.0831V259.816H80.2884C80.6989 258.828 81.3337 258.049 82.1927 257.479C83.0594 256.901 84.1617 256.612 85.4997 256.612C86.7161 256.612 87.7766 256.867 88.6813 257.376C89.5859 257.885 90.2853 258.63 90.7795 259.611C91.2812 260.592 91.5321 261.789 91.5321 263.203V274.356H87.4041V263.842C87.4041 262.663 87.1 261.747 86.4918 261.094C85.8912 260.432 85.0474 260.101 83.9603 260.101C83.2305 260.101 82.5767 260.261 81.9989 260.58C81.4287 260.892 80.9802 261.344 80.6533 261.937C80.334 262.53 80.1743 263.249 80.1743 264.093ZM103.494 274.698C101.738 274.698 100.221 274.333 98.9443 273.603C97.6747 272.866 96.6978 271.824 96.0136 270.479C95.3294 269.125 94.9873 267.533 94.9873 265.701C94.9873 263.899 95.3294 262.318 96.0136 260.957C96.7054 259.588 97.6709 258.524 98.9101 257.764C100.149 256.996 101.605 256.612 103.278 256.612C104.357 256.612 105.376 256.787 106.334 257.137C107.299 257.479 108.151 258.011 108.888 258.733C109.633 259.455 110.218 260.375 110.644 261.493C111.07 262.603 111.283 263.925 111.283 265.461V266.727H96.9259V263.944H107.326C107.318 263.154 107.147 262.451 106.813 261.835C106.478 261.211 106.011 260.721 105.41 260.364C104.817 260.006 104.125 259.828 103.335 259.828C102.491 259.828 101.75 260.033 101.111 260.444C100.472 260.847 99.9744 261.379 99.6171 262.04C99.2674 262.694 99.0887 263.412 99.0811 264.195V266.624C99.0811 267.643 99.2674 268.517 99.6399 269.247C100.012 269.969 100.533 270.524 101.202 270.912C101.871 271.292 102.654 271.482 103.551 271.482C104.152 271.482 104.695 271.398 105.182 271.231C105.668 271.056 106.09 270.802 106.448 270.467C106.805 270.133 107.075 269.718 107.257 269.224L111.112 269.658C110.868 270.676 110.405 271.566 109.72 272.326C109.044 273.079 108.177 273.664 107.121 274.082C106.064 274.493 104.855 274.698 103.494 274.698ZM119.815 274.709C118.705 274.709 117.706 274.512 116.816 274.116C115.934 273.713 115.235 273.12 114.718 272.337C114.209 271.554 113.954 270.589 113.954 269.441C113.954 268.453 114.136 267.635 114.501 266.989C114.866 266.343 115.364 265.826 115.995 265.438C116.626 265.051 117.337 264.758 118.128 264.56C118.926 264.355 119.751 264.207 120.602 264.115C121.628 264.009 122.461 263.914 123.099 263.83C123.738 263.739 124.202 263.602 124.491 263.42C124.787 263.23 124.935 262.937 124.935 262.542V262.473C124.935 261.614 124.681 260.949 124.171 260.478C123.662 260.006 122.928 259.771 121.971 259.771C120.959 259.771 120.157 259.991 119.564 260.432C118.979 260.873 118.584 261.394 118.378 261.994L114.524 261.447C114.828 260.383 115.33 259.493 116.029 258.779C116.729 258.056 117.584 257.517 118.595 257.159C119.606 256.795 120.724 256.612 121.948 256.612C122.792 256.612 123.632 256.711 124.468 256.909C125.304 257.106 126.068 257.433 126.76 257.889C127.452 258.338 128.007 258.95 128.425 259.725C128.851 260.501 129.063 261.47 129.063 262.633V274.356H125.095V271.95H124.958C124.707 272.436 124.354 272.892 123.898 273.318C123.449 273.736 122.883 274.074 122.199 274.333C121.522 274.584 120.728 274.709 119.815 274.709ZM120.887 271.676C121.716 271.676 122.434 271.512 123.042 271.186C123.651 270.851 124.118 270.41 124.445 269.863C124.78 269.315 124.947 268.719 124.947 268.072V266.008C124.818 266.115 124.597 266.214 124.285 266.305C123.981 266.396 123.639 266.476 123.259 266.544C122.879 266.613 122.503 266.674 122.13 266.727C121.758 266.78 121.435 266.826 121.161 266.864C120.545 266.947 119.994 267.084 119.507 267.274C119.021 267.464 118.637 267.73 118.356 268.072C118.074 268.407 117.934 268.84 117.934 269.372C117.934 270.133 118.211 270.707 118.766 271.094C119.321 271.482 120.028 271.676 120.887 271.676ZM139.714 274.664C138.338 274.664 137.107 274.31 136.02 273.603C134.932 272.896 134.073 271.87 133.442 270.524C132.811 269.179 132.496 267.544 132.496 265.621C132.496 263.675 132.815 262.032 133.454 260.694C134.1 259.349 134.97 258.334 136.065 257.65C137.16 256.958 138.38 256.612 139.726 256.612C140.752 256.612 141.596 256.787 142.257 257.137C142.919 257.479 143.443 257.893 143.831 258.38C144.219 258.859 144.519 259.311 144.732 259.737H144.903V251.002H149.042V274.356H144.983V271.596H144.732C144.519 272.022 144.211 272.474 143.808 272.953C143.405 273.424 142.873 273.827 142.212 274.162C141.55 274.496 140.718 274.664 139.714 274.664ZM140.866 271.277C141.74 271.277 142.485 271.041 143.101 270.57C143.717 270.091 144.184 269.426 144.504 268.574C144.823 267.723 144.983 266.731 144.983 265.598C144.983 264.465 144.823 263.481 144.504 262.644C144.192 261.808 143.728 261.158 143.112 260.694C142.504 260.231 141.755 259.999 140.866 259.999C139.946 259.999 139.178 260.238 138.562 260.717C137.947 261.196 137.483 261.858 137.171 262.701C136.86 263.545 136.704 264.511 136.704 265.598C136.704 266.693 136.86 267.67 137.171 268.529C137.491 269.38 137.958 270.053 138.574 270.547C139.197 271.034 139.961 271.277 140.866 271.277ZM169.919 266.727L154.319 273.934V269.886L165.403 265.13L165.278 265.347V264.822L165.403 265.039L154.319 260.284V256.236L169.919 263.443V266.727Z" fill="#FC00C4"/>
<path d="M17.9426 45.7778V41.6176L37.7032 32.4884V37.6164L23.6628 43.6399L23.8217 43.3655V44.0299L23.6628 43.7555L37.7032 49.779V54.907L17.9426 45.7778ZM50.5989 28.6316L50.1222 49.519H45.471L45.0087 28.6316H50.5989ZM47.7966 58.5326C46.9203 58.5326 46.1691 58.2245 45.5432 57.6082C44.9269 56.9918 44.6187 56.2407 44.6187 55.3547C44.6187 54.4881 44.9269 53.7465 45.5432 53.1302C46.1691 52.5139 46.9203 52.2058 47.7966 52.2058C48.6537 52.2058 49.3952 52.5139 50.0211 53.1302C50.6567 53.7465 50.9745 54.4881 50.9745 55.3547C50.9745 55.9422 50.8252 56.4766 50.5267 56.9581C50.2378 57.4396 49.8526 57.8248 49.3711 58.1137C48.8992 58.393 48.3744 58.5326 47.7966 58.5326ZM67.0083 58.2148H56.9836V28.6316H67.2106C70.1477 28.6316 72.6708 29.2239 74.7797 30.4084C76.8983 31.5832 78.5258 33.2733 79.6621 35.4785C80.7984 37.6838 81.3666 40.3224 81.3666 43.3944C81.3666 46.4759 80.7936 49.1242 79.6477 51.3391C78.5113 53.5539 76.8694 55.2536 74.7219 56.4381C72.5841 57.6226 70.0129 58.2148 67.0083 58.2148ZM62.3426 53.578H66.7483C68.8091 53.578 70.5281 53.2025 71.9052 52.4513C73.2823 51.6906 74.3175 50.559 75.0108 49.0568C75.7042 47.5449 76.0509 45.6574 76.0509 43.3944C76.0509 41.1313 75.7042 39.2535 75.0108 37.7608C74.3175 36.2586 73.2919 35.1367 71.9341 34.3952C70.5859 33.644 68.9103 33.2685 66.9072 33.2685H62.3426V53.578ZM112.893 43.4232C112.893 46.6108 112.296 49.3408 111.101 51.6135C109.917 53.8766 108.299 55.6099 106.248 56.8137C104.206 58.0174 101.89 58.6193 99.3 58.6193C96.7095 58.6193 94.3887 58.0174 92.3375 56.8137C90.296 55.6003 88.6781 53.8621 87.484 51.5991C86.2995 49.3264 85.7073 46.6011 85.7073 43.4232C85.7073 40.2357 86.2995 37.5105 87.484 35.2474C88.6781 32.9748 90.296 31.2365 92.3375 30.0328C94.3887 28.8291 96.7095 28.2272 99.3 28.2272C101.89 28.2272 104.206 28.8291 106.248 30.0328C108.299 31.2365 109.917 32.9748 111.101 35.2474C112.296 37.5105 112.893 40.2357 112.893 43.4232ZM107.505 43.4232C107.505 41.1795 107.153 39.2872 106.45 37.7464C105.757 36.196 104.794 35.0259 103.561 34.2363C102.329 33.437 100.908 33.0374 99.3 33.0374C97.6918 33.0374 96.2713 33.437 95.0387 34.2363C93.8061 35.0259 92.8383 36.196 92.1353 37.7464C91.4419 39.2872 91.0953 41.1795 91.0953 43.4232C91.0953 45.667 91.4419 47.5641 92.1353 49.1145C92.8383 50.6553 93.8061 51.8254 95.0387 52.6247C96.2713 53.4143 97.6918 53.8091 99.3 53.8091C100.908 53.8091 102.329 53.4143 103.561 52.6247C104.794 51.8254 105.757 50.6553 106.45 49.1145C107.153 47.5641 107.505 45.667 107.505 43.4232ZM143.281 38.6131H137.879C137.725 37.7271 137.441 36.9423 137.026 36.2586C136.612 35.5652 136.097 34.9778 135.481 34.4963C134.865 34.0148 134.162 33.6537 133.372 33.4129C132.592 33.1625 131.749 33.0374 130.844 33.0374C129.236 33.0374 127.811 33.4418 126.568 34.2507C125.326 35.05 124.353 36.2249 123.65 37.7753C122.947 39.3161 122.596 41.1987 122.596 43.4232C122.596 45.6863 122.947 47.593 123.65 49.1434C124.363 50.6842 125.336 51.8494 126.568 52.6391C127.811 53.4191 129.231 53.8091 130.83 53.8091C131.716 53.8091 132.544 53.6936 133.314 53.4625C134.094 53.2217 134.792 52.8702 135.409 52.408C136.035 51.9457 136.559 51.3776 136.983 50.7035C137.416 50.0294 137.715 49.259 137.879 48.3923L143.281 48.4212C143.079 49.8272 142.641 51.1465 141.967 52.3791C141.302 53.6117 140.431 54.6999 139.352 55.6436C138.274 56.5778 137.012 57.3096 135.568 57.8393C134.123 58.3593 132.52 58.6193 130.757 58.6193C128.157 58.6193 125.836 58.0174 123.795 56.8137C121.753 55.6099 120.145 53.8717 118.97 51.5991C117.795 49.3264 117.208 46.6011 117.208 43.4232C117.208 40.2357 117.8 37.5105 118.985 35.2474C120.169 32.9748 121.782 31.2365 123.824 30.0328C125.865 28.8291 128.177 28.2272 130.757 28.2272C132.404 28.2272 133.935 28.4583 135.351 28.9205C136.766 29.3828 138.028 30.0617 139.135 30.9573C140.243 31.8432 141.153 32.9314 141.866 34.2218C142.588 35.5026 143.06 36.9664 143.281 38.6131ZM146.889 33.124V28.6316H170.492V33.124H161.348V58.2148H156.032V33.124H146.889ZM173.02 28.6316H179.072L186.309 41.7187H186.598L193.835 28.6316H199.887L189.126 47.1789V58.2148H183.781V47.1789L173.02 28.6316ZM203.683 58.2148V28.6316H214.776C217.049 28.6316 218.956 29.0554 220.496 29.9028C222.047 30.7502 223.217 31.9155 224.007 33.3985C224.806 34.8719 225.205 36.5475 225.205 38.4253C225.205 40.3224 224.806 42.0076 224.007 43.481C223.207 44.9544 222.028 46.1148 220.468 46.9623C218.907 47.8001 216.986 48.219 214.704 48.219H207.352V43.8133H213.982C215.311 43.8133 216.399 43.5821 217.246 43.1199C218.094 42.6577 218.72 42.0221 219.124 41.2132C219.538 40.4043 219.745 39.475 219.745 38.4253C219.745 37.3756 219.538 36.4512 219.124 35.6519C218.72 34.8526 218.089 34.2315 217.232 33.7885C216.384 33.3359 215.291 33.1096 213.953 33.1096H209.042V58.2148H203.683ZM229.86 58.2148V28.6316H249.101V33.124H235.219V41.1554H248.104V45.6478H235.219V53.7225H249.217V58.2148H229.86ZM372.811 48.5512L353.05 57.6804V52.5524L367.091 46.5289L366.932 46.8034V46.1389L367.091 46.4133L353.05 40.3898V35.2619L372.811 44.3911V48.5512Z" fill="#6CD718"/>
<path d="M269.656 45.2144V58.2148H264.427V28.6316H269.541V39.7976H269.801C270.321 38.5457 271.125 37.5586 272.213 36.8364C273.311 36.1045 274.707 35.7386 276.402 35.7386C277.943 35.7386 279.286 36.0612 280.432 36.7064C281.578 37.3516 282.464 38.2953 283.09 39.5376C283.725 40.7798 284.043 42.2965 284.043 44.0877V58.2148H278.814V44.8966C278.814 43.404 278.429 42.2436 277.659 41.4154C276.898 40.5776 275.829 40.1587 274.452 40.1587C273.527 40.1587 272.699 40.3609 271.967 40.7654C271.245 41.1602 270.677 41.7332 270.263 42.4843C269.858 43.2355 269.656 44.1455 269.656 45.2144ZM300.453 36.0274V40.072H287.698V36.0274H300.453ZM290.847 30.7117H296.076V51.5413C296.076 52.2443 296.182 52.7836 296.394 53.1591C296.615 53.5251 296.904 53.7754 297.26 53.9103C297.617 54.0451 298.011 54.1125 298.445 54.1125C298.772 54.1125 299.071 54.0884 299.34 54.0403C299.62 53.9921 299.832 53.9488 299.976 53.9103L300.857 57.9982C300.578 58.0945 300.178 58.2004 299.658 58.316C299.148 58.4315 298.522 58.4989 297.78 58.5182C296.471 58.5567 295.291 58.3593 294.241 57.9259C293.192 57.483 292.359 56.7992 291.742 55.8748C291.136 54.9503 290.837 53.7947 290.847 52.408V30.7117ZM304.826 58.2148V36.0274H309.824V39.7976H310.084C310.546 38.5264 311.312 37.5345 312.381 36.8219C313.45 36.0997 314.725 35.7386 316.208 35.7386C317.711 35.7386 318.977 36.1045 320.007 36.8364C321.048 37.5586 321.779 38.5457 322.203 39.7976H322.434C322.925 38.5649 323.754 37.5827 324.919 36.8508C326.094 36.1093 327.485 35.7386 329.093 35.7386C331.135 35.7386 332.801 36.3838 334.091 37.6742C335.382 38.9646 336.027 40.8472 336.027 43.3221V58.2148H330.783V44.131C330.783 42.754 330.417 41.7476 329.686 41.1121C328.954 40.4669 328.058 40.1442 326.999 40.1442C325.737 40.1442 324.75 40.5391 324.038 41.3287C323.335 42.1088 322.983 43.1247 322.983 44.3766V58.2148H317.855V43.9144C317.855 42.7684 317.509 41.8536 316.815 41.1698C316.131 40.4861 315.236 40.1442 314.128 40.1442C313.377 40.1442 312.694 40.3368 312.077 40.722C311.461 41.0976 310.97 41.6321 310.604 42.3254C310.238 43.0092 310.055 43.8084 310.055 44.7233V58.2148H304.826ZM346.561 28.6316V58.2148H341.332V28.6316H346.561Z" fill="white"/>
</svg>
