<svg width="771" height="89" viewBox="0 0 771 89" fill="none" xmlns="http://www.w3.org/2000/svg">
<path d="M381.041 6.85653C381.943 2.84797 385.503 0 389.611 0H397.079C402.708 0 406.885 5.22096 405.649 10.7133L389.836 80.9927C388.934 85.0013 385.375 87.8493 381.266 87.8493H373.799C368.169 87.8493 363.992 82.6283 365.228 77.1359L381.041 6.85653Z" fill="#24091C"/>
<path d="M426.722 6.85653C427.624 2.84797 431.184 0 435.293 0H442.76C448.39 0 452.567 5.22096 451.331 10.7133L435.518 80.9927C434.616 85.0013 431.056 87.8493 426.947 87.8493H419.48C413.851 87.8493 409.674 82.6283 410.91 77.1359L426.722 6.85653Z" fill="#24091C"/>
<path d="M472.404 6.85653C473.306 2.84797 476.866 0 480.975 0H488.442C494.072 0 498.248 5.22096 497.013 10.7133L481.2 80.9927C480.298 85.0013 476.738 87.8493 472.629 87.8493H465.162C459.532 87.8493 455.355 82.6283 456.591 77.1359L472.404 6.85653Z" fill="#24091C"/>
<path d="M515.45 6.85653C516.352 2.84797 519.912 0 524.021 0H531.488C537.117 0 541.294 5.22096 540.058 10.7133L524.246 80.9927C523.344 85.0013 519.784 87.8493 515.675 87.8493H508.208C502.578 87.8493 498.401 82.6283 499.637 77.1359L515.45 6.85653Z" fill="#24091C"/>
<path d="M561.132 6.85653C562.033 2.84797 565.593 0 569.702 0H577.169C582.799 0 586.976 5.22096 585.74 10.7133L569.927 80.9927C569.025 85.0013 565.465 87.8493 561.357 87.8493H553.889C548.26 87.8493 544.083 82.6283 545.319 77.1359L561.132 6.85653Z" fill="#24091C"/>
<path d="M606.813 6.85653C607.715 2.84797 611.275 0 615.384 0H622.851C628.481 0 632.657 5.22096 631.422 10.7133L615.609 80.9927C614.707 85.0013 611.147 87.8493 607.038 87.8493H599.571C593.941 87.8493 589.765 82.6283 591 77.1359L606.813 6.85653Z" fill="#24091C"/>
<path d="M652.223 6.85653C653.125 2.84797 656.685 0 660.794 0H668.261C673.891 0 678.068 5.22096 676.832 10.7133L661.019 80.9927C660.117 85.0013 656.557 87.8493 652.448 87.8493H644.981C639.351 87.8493 635.175 82.6283 636.41 77.1359L652.223 6.85653Z" fill="#24091C"/>
<path d="M697.905 6.85653C698.807 2.84797 702.367 0 706.476 0H713.943C719.573 0 723.749 5.22096 722.514 10.7133L706.701 80.9927C705.799 85.0013 702.239 87.8493 698.13 87.8493H690.663C685.033 87.8493 680.856 82.6283 682.092 77.1359L697.905 6.85653Z" fill="#24091C"/>
<path d="M743.587 6.85653C744.489 2.84797 748.049 0 752.157 0H759.624C765.254 0 769.431 5.22096 768.195 10.7133L752.382 80.9927C751.48 85.0013 747.92 87.8493 743.812 87.8493H736.344C730.715 87.8493 726.538 82.6283 727.774 77.1359L743.587 6.85653Z" fill="#24091C"/>
<path d="M109.587 7.73495C110.489 3.72638 114.049 0.878418 118.157 0.878418H125.624C131.254 0.878418 135.431 6.09938 134.195 11.5917L118.382 81.8711C117.48 85.8797 113.92 88.7277 109.812 88.7277H102.344C96.7148 88.7277 92.538 83.5067 93.7738 78.0144L109.587 7.73495Z" fill="#24091C"/>
<path d="M155.268 7.73495C156.17 3.72638 159.73 0.878418 163.839 0.878418H171.306C176.936 0.878418 181.113 6.09938 179.877 11.5917L164.064 81.8711C163.162 85.8797 159.602 88.7277 155.493 88.7277H148.026C142.396 88.7277 138.22 83.5067 139.455 78.0144L155.268 7.73495Z" fill="#24091C"/>
<path d="M200.95 7.73495C201.852 3.72638 205.412 0.878418 209.521 0.878418H216.988C222.617 0.878418 226.794 6.09938 225.558 11.5917L209.746 81.8711C208.844 85.8797 205.284 88.7277 201.175 88.7277H193.708C188.078 88.7277 183.901 83.5067 185.137 78.0144L200.95 7.73495Z" fill="#24091C"/>
<path d="M246.632 7.73495C247.533 3.72638 251.093 0.878418 255.202 0.878418H262.669C268.299 0.878418 272.476 6.09938 271.24 11.5917L255.427 81.8711C254.525 85.8797 250.965 88.7277 246.857 88.7277H239.389C233.76 88.7277 229.583 83.5067 230.819 78.0144L246.632 7.73495Z" fill="#24091C"/>
<path d="M292.313 7.73495C293.215 3.72638 296.775 0.878418 300.884 0.878418H308.351C313.981 0.878418 318.157 6.09938 316.922 11.5917L301.109 81.8711C300.207 85.8797 296.647 88.7277 292.538 88.7277H285.071C279.441 88.7277 275.265 83.5067 276.5 78.0144L292.313 7.73495Z" fill="#24091C"/>
<path d="M337.995 7.73495C338.897 3.72638 342.457 0.878418 346.566 0.878418H354.033C359.662 0.878418 363.839 6.09938 362.603 11.5917L346.79 81.8711C345.889 85.8797 342.329 88.7277 338.22 88.7277H330.753C325.123 88.7277 320.946 83.5067 322.182 78.0144L337.995 7.73495Z" fill="#24091C"/>
<path d="M18.2234 7.73495C19.1253 3.72638 22.6852 0.878418 26.794 0.878418H34.2612C39.8909 0.878418 44.0676 6.09938 42.8319 11.5917L27.019 81.8711C26.1171 85.8797 22.5571 88.7277 18.4483 88.7277H10.9812C5.3515 88.7277 1.17472 83.5067 2.4105 78.0144L18.2234 7.73495Z" fill="#24091C"/>
<path d="M63.905 7.73495C64.8069 3.72638 68.3669 0.878418 72.4757 0.878418H79.9428C85.5725 0.878418 89.7493 6.09938 88.5135 11.5917L72.7006 81.8711C71.7987 85.8797 68.2388 88.7277 64.13 88.7277H56.6628C51.0331 88.7277 46.8564 83.5067 48.0921 78.0144L63.905 7.73495Z" fill="#24091C"/>
</svg>
