<svg width="1532" height="1350" viewBox="0 0 1532 1350" fill="none" xmlns="http://www.w3.org/2000/svg">
<rect x="1.64378" y="477.617" width="1528.71" height="78.2883" stroke="#560058" stroke-width="3.28755"/>
<rect x="1.64378" y="398.371" width="1528.71" height="78.2883" stroke="#560058" stroke-width="3.28755"/>
<rect x="1.64378" y="319.126" width="1528.71" height="78.2883" stroke="#560058" stroke-width="3.28755"/>
<rect x="1.64378" y="2.14597" width="1528.71" height="78.2883" stroke="#560058" stroke-width="3.28755"/>
<rect x="1.64378" y="160.636" width="1528.71" height="78.2883" stroke="#560058" stroke-width="3.28755"/>
<rect x="1.64378" y="81.391" width="1528.71" height="78.2883" stroke="#560058" stroke-width="3.28755"/>
<rect x="1.64378" y="239.881" width="1528.71" height="78.2883" stroke="#560058" stroke-width="3.28755"/>
<rect x="1.64378" y="556.862" width="1528.71" height="78.2883" stroke="#560058" stroke-width="3.28755"/>
<rect x="1.64378" y="1111.58" width="1528.71" height="78.2883" stroke="#560058" stroke-width="3.28755"/>
<rect x="1.64378" y="1032.33" width="1528.71" height="78.2883" stroke="#560058" stroke-width="3.28755"/>
<rect x="1.64378" y="953.087" width="1528.71" height="78.2883" stroke="#560058" stroke-width="3.28755"/>
<rect x="1.64378" y="636.107" width="1528.71" height="78.2883" stroke="#560058" stroke-width="3.28755"/>
<rect x="1.64378" y="794.597" width="1528.71" height="78.2883" stroke="#560058" stroke-width="3.28755"/>
<rect x="1.64378" y="715.352" width="1528.71" height="78.2883" stroke="#560058" stroke-width="3.28755"/>
<rect x="1.64378" y="873.842" width="1528.71" height="78.2883" stroke="#560058" stroke-width="3.28755"/>
<rect x="1.64378" y="1190.82" width="1528.71" height="78.2883" stroke="#560058" stroke-width="3.28755"/>
<rect x="1.64378" y="1270.07" width="1528.71" height="78.2883" stroke="#560058" stroke-width="3.28755"/>
<rect x="1.64378" y="2.14597" width="75.4187" height="1346.21" stroke="#560058" stroke-width="3.28755"/>
<rect x="154.622" y="2.14591" width="75.4187" height="1346.21" stroke="#560058" stroke-width="3.28755"/>
<rect x="307.6" y="2.14591" width="75.4187" height="1346.21" stroke="#560058" stroke-width="3.28755"/>
<rect x="460.579" y="2.14591" width="75.4187" height="1346.21" stroke="#560058" stroke-width="3.28755"/>
<rect x="78.133" y="2.14591" width="75.4187" height="1346.21" stroke="#560058" stroke-width="3.28755"/>
<rect x="231.111" y="2.14591" width="75.4187" height="1346.21" stroke="#560058" stroke-width="3.28755"/>
<rect x="384.09" y="2.14591" width="75.4187" height="1346.21" stroke="#560058" stroke-width="3.28755"/>
<rect x="537.068" y="2.14591" width="75.4187" height="1346.21" stroke="#560058" stroke-width="3.28755"/>
<rect x="613.557" y="2.14591" width="75.4187" height="1346.21" stroke="#560058" stroke-width="3.28755"/>
<rect x="766.535" y="2.14591" width="75.4187" height="1346.21" stroke="#560058" stroke-width="3.28755"/>
<rect x="919.513" y="2.14591" width="75.4187" height="1346.21" stroke="#560058" stroke-width="3.28755"/>
<rect x="1225.47" y="2.14591" width="75.4187" height="1346.21" stroke="#560058" stroke-width="3.28755"/>
<rect x="1072.49" y="2.14591" width="75.4187" height="1346.21" stroke="#560058" stroke-width="3.28755"/>
<rect x="1378.45" y="2.14591" width="75.4187" height="1346.21" stroke="#560058" stroke-width="3.28755"/>
<rect x="690.046" y="2.14591" width="75.4187" height="1346.21" stroke="#560058" stroke-width="3.28755"/>
<rect x="843.025" y="2.14591" width="75.4187" height="1346.21" stroke="#560058" stroke-width="3.28755"/>
<rect x="996.003" y="2.14591" width="75.4187" height="1346.21" stroke="#560058" stroke-width="3.28755"/>
<rect x="1301.96" y="2.14591" width="75.4187" height="1346.21" stroke="#560058" stroke-width="3.28755"/>
<rect x="1148.98" y="2.14591" width="75.4187" height="1346.21" stroke="#560058" stroke-width="3.28755"/>
<rect x="1454.94" y="2.14591" width="75.4187" height="1346.21" stroke="#560058" stroke-width="3.28755"/>
</svg>
