<svg width="126" height="61" viewBox="0 0 126 61" fill="none" xmlns="http://www.w3.org/2000/svg">
<path d="M5.47285 35.206V41.5742H55.9633V35.206H5.47285ZM0.144382 7.00412V13.5672H31.2704V7.00412H0.144382ZM36.9888 2.91029V8.36872H54.1438V2.91029H36.9888ZM37.8335 11.1629V16.1665H54.7287V11.1629H37.8335ZM37.5086 19.0257V24.0942H54.4038V19.0257H37.5086ZM8.13708 44.8232V50.9964H52.7792V44.8232H8.13708ZM1.37903 54.3755V60.7436H59.4723V54.3755H1.37903ZM26.3968 38.3251V58.4693H34.2596V38.3251H26.3968ZM12.1659 0.895873V9.79831H19.4438V0.895873H12.1659ZM4.75805 10.773V21.9498C4.75805 28.7079 6.64251 31.1122 13.8554 31.1122C15.1551 31.1122 21.1333 31.1122 22.6929 31.1122C24.8373 31.1122 27.2416 31.0472 28.5412 30.5923C28.2163 28.9028 28.0214 25.9786 27.8264 24.1592C26.5918 24.4191 24.1225 24.614 22.4979 24.614C21.0034 24.614 15.285 24.614 13.9204 24.614C12.2959 24.614 11.906 23.8992 11.906 22.0798V10.773H4.75805ZM51.9345 2.91029V4.07996C51.4796 19.6755 50.8948 25.2639 49.92 26.5635C49.4652 27.2783 48.8803 27.4732 48.1006 27.4082C47.1258 27.4082 45.3714 27.4082 43.292 27.1483C44.1367 28.7728 44.8515 31.3071 44.9815 32.9966C47.6457 33.1266 50.18 33.1266 51.7395 32.8667C53.559 32.6067 54.9236 32.0219 56.1582 30.4624C57.7178 28.383 58.3676 22.2097 58.8875 5.63951C58.9524 4.79475 58.9524 2.91029 58.9524 2.91029H51.9345ZM34.9094 2.91029C34.6494 15.0618 34.2596 23.8343 27.3066 29.0328C28.8661 30.2024 30.8155 32.6067 31.6603 34.2313C40.3028 27.9281 41.5375 17.2712 41.8624 2.91029H34.9094ZM76.8223 6.87415L77.1472 15.1918C78.8367 14.9968 81.1111 14.7369 82.4757 14.6719C85.3998 14.477 91.0532 14.282 93.6524 14.217C91.703 18.2459 89.0388 24.614 86.7644 29.7476C84.4251 34.8811 82.0858 40.8594 79.9414 44.0434C78.7067 45.668 77.862 46.2528 76.5624 46.2528C75.0028 46.2528 73.7682 45.1481 73.7682 43.0037C73.7682 38.2601 79.2266 33.1266 88.7139 33.1266C102.1 33.1266 113.537 40.5345 121.529 47.6174L125.298 38.585C118.475 33.9064 105.219 25.8487 90.0785 25.8487C76.1725 25.8487 66.2303 33.8414 66.2303 44.2384C66.2303 50.8665 70.5191 54.7654 76.1725 54.7654C80.6562 54.7654 83.7103 53.0109 86.3096 49.047C88.9738 44.9532 92.0929 37.2204 94.6921 31.2421C97.6163 24.4841 101.125 16.1015 103.335 12.3976C103.855 11.5528 104.634 10.708 105.479 9.73333L100.346 5.63951C99.1759 6.09438 97.4863 6.48426 95.8618 6.61423C92.8727 6.87415 85.9846 7.13408 82.2157 7.13408C80.8511 7.13408 78.5768 7.00412 76.8223 6.87415ZM119.58 22.2097L111.067 21.235C111.327 23.2494 111.262 25.8487 111.132 28.383C110.548 35.9858 108.598 48.1373 92.5478 55.0253L99.5008 60.6787C115.031 52.621 118.67 40.6644 119.58 22.2097Z" fill="white"/>
</svg>
