<svg width="764" height="144" viewBox="0 0 764 144" fill="none" xmlns="http://www.w3.org/2000/svg">
<path d="M170.226 92.1906V105.066C166.957 105.747 163.755 106.258 160.621 106.598C157.488 106.939 153.775 107.109 149.483 107.109C143.965 107.109 139.299 106.633 135.484 105.679C131.737 104.725 128.706 103.056 126.39 100.672C124.142 98.2194 122.507 94.7793 121.485 90.3513C120.463 85.9234 119.952 80.2352 119.952 73.2867C119.952 66.6107 120.463 61.1269 121.485 56.8352C122.507 52.5435 124.142 49.2396 126.39 46.9234C128.706 44.5391 131.737 42.9042 135.484 42.0186C139.299 41.0649 143.965 40.588 149.483 40.588C153.775 40.588 157.488 40.7583 160.621 41.099C163.755 41.3714 166.957 41.8824 170.226 42.6317V55.9155L169.92 56.1199C167.059 55.4387 164.3 54.9618 161.643 54.6893C158.986 54.3487 155.716 54.1784 151.833 54.1784C148.7 54.1784 146.111 54.4168 144.068 54.8937C142.092 55.3024 140.525 56.154 139.367 57.4483C138.209 58.7426 137.392 60.65 136.915 63.1706C136.506 65.6911 136.302 69.0631 136.302 73.2867C136.302 77.7146 136.506 81.2911 136.915 84.0159C137.392 86.6727 138.209 88.6823 139.367 90.0448C140.525 91.4072 142.092 92.3269 144.068 92.8037C146.111 93.2806 148.7 93.519 151.833 93.519C155.648 93.519 158.884 93.4168 161.541 93.2124C164.266 92.94 166.991 92.4631 169.716 91.7819L170.226 92.1906ZM176.832 73.7976C176.832 65.5548 177.751 59.0151 179.591 54.1784C181.498 49.3417 184.734 45.8675 189.298 43.7557C193.93 41.6439 200.368 40.588 208.611 40.588C214.81 40.588 219.953 41.1671 224.04 42.3252C228.128 43.4832 231.363 45.3566 233.748 47.9452C236.132 50.5339 237.801 53.9741 238.755 58.2658C239.777 62.4893 240.287 67.6666 240.287 73.7976C240.287 79.9967 239.777 85.2421 238.755 89.5338C237.801 93.7574 236.132 97.1635 233.748 99.7522C231.363 102.341 228.128 104.214 224.04 105.372C219.953 106.53 214.81 107.109 208.611 107.109C202.412 107.109 197.268 106.53 193.181 105.372C189.094 104.214 185.858 102.341 183.474 99.7522C181.089 97.1635 179.386 93.7574 178.364 89.5338C177.343 85.2421 176.832 79.9967 176.832 73.7976ZM208.611 92.8037C212.97 92.8037 216.24 92.2587 218.42 91.1688C220.6 90.0788 222.065 88.1714 222.814 85.4465C223.563 82.6535 223.938 78.7705 223.938 73.7976C223.938 68.8928 223.563 65.078 222.814 62.3531C222.065 59.6282 220.6 57.7208 218.42 56.6308C216.24 55.4727 212.97 54.8937 208.611 54.8937C204.319 54.8937 201.049 55.4727 198.801 56.6308C196.621 57.7208 195.122 59.6282 194.305 62.3531C193.556 65.078 193.181 68.8928 193.181 73.7976C193.181 78.7705 193.556 82.6535 194.305 85.4465C195.122 88.1714 196.621 90.0788 198.801 91.1688C201.049 92.2587 204.319 92.8037 208.611 92.8037ZM292.419 41.5077H308.768V106.19H292.521L274.128 78.8046C272.697 76.6247 271.505 74.7854 270.551 73.2867C269.598 71.788 268.712 70.2893 267.895 68.7906C267.077 67.2919 266.157 65.5208 265.136 63.4771L264.829 63.8858C265.783 67.1557 266.362 70.2212 266.566 73.0823C266.771 75.8753 266.873 78.6002 266.873 81.257V106.19H250.523V41.5077H266.771L285.164 68.8928C286.594 71.0046 287.786 72.8439 288.74 74.4107C289.694 75.9094 290.579 77.4081 291.397 78.9068C292.214 80.4055 293.134 82.1766 294.156 84.2203L294.462 83.8116C293.781 80.9504 293.27 78.1915 292.929 75.5347C292.589 72.8098 292.419 70.119 292.419 67.4623V41.5077ZM334.358 106.19V55.3024H315.965V41.5077H369.1V55.3024H350.707V106.19H334.358ZM435.523 105.883V106.19H418.152C417.675 104.555 417.096 102.681 416.415 100.57C415.802 98.4579 415.12 96.2098 414.371 93.8255H392.3C390.937 98.5941 389.677 102.715 388.519 106.19H371.148V105.985L392.095 41.5077H414.575L435.523 105.883ZM403.131 53.1566C402.45 56.6308 401.462 60.8544 400.168 65.8273C398.873 70.8002 397.511 75.8753 396.08 81.0526H410.693C409.194 75.8753 407.797 70.8002 406.503 65.8273C405.209 60.8544 404.221 56.6308 403.54 53.1566H403.131ZM490.946 92.1906V105.066C487.676 105.747 484.475 106.258 481.341 106.598C478.207 106.939 474.495 107.109 470.203 107.109C464.685 107.109 460.019 106.633 456.204 105.679C452.457 104.725 449.426 103.056 447.11 100.672C444.862 98.2194 443.227 94.7793 442.205 90.3513C441.183 85.9234 440.672 80.2352 440.672 73.2867C440.672 66.6107 441.183 61.1269 442.205 56.8352C443.227 52.5435 444.862 49.2396 447.11 46.9234C449.426 44.5391 452.457 42.9042 456.204 42.0186C460.019 41.0649 464.685 40.588 470.203 40.588C474.495 40.588 478.207 40.7583 481.341 41.099C484.475 41.3714 487.676 41.8824 490.946 42.6317V55.9155L490.64 56.1199C487.779 55.4387 485.02 54.9618 482.363 54.6893C479.706 54.3487 476.436 54.1784 472.553 54.1784C469.42 54.1784 466.831 54.4168 464.787 54.8937C462.812 55.3024 461.245 56.154 460.087 57.4483C458.929 58.7426 458.111 60.65 457.635 63.1706C457.226 65.6911 457.021 69.0631 457.021 73.2867C457.021 77.7146 457.226 81.2911 457.635 84.0159C458.111 86.6727 458.929 88.6823 460.087 90.0448C461.245 91.4072 462.812 92.3269 464.787 92.8037C466.831 93.2806 469.42 93.519 472.553 93.519C476.368 93.519 479.604 93.4168 482.261 93.2124C484.986 92.94 487.71 92.4631 490.435 91.7819L490.946 92.1906ZM512.879 106.19V55.3024H494.486V41.5077H547.621V55.3024H529.228V106.19H512.879ZM552.734 73.7976C552.734 65.5548 553.654 59.0151 555.493 54.1784C557.401 49.3417 560.637 45.8675 565.201 43.7557C569.833 41.6439 576.271 40.588 584.513 40.588C590.713 40.588 595.856 41.1671 599.943 42.3252C604.031 43.4832 607.266 45.3566 609.651 47.9452C612.035 50.5339 613.704 53.9741 614.658 58.2658C615.679 62.4893 616.19 67.6666 616.19 73.7976C616.19 79.9967 615.679 85.2421 614.658 89.5338C613.704 93.7574 612.035 97.1635 609.651 99.7522C607.266 102.341 604.031 104.214 599.943 105.372C595.856 106.53 590.713 107.109 584.513 107.109C578.314 107.109 573.171 106.53 569.084 105.372C564.996 104.214 561.761 102.341 559.376 99.7522C556.992 97.1635 555.289 93.7574 554.267 89.5338C553.245 85.2421 552.734 79.9967 552.734 73.7976ZM584.513 92.8037C588.873 92.8037 592.143 92.2587 594.323 91.1688C596.503 90.0788 597.968 88.1714 598.717 85.4465C599.466 82.6535 599.841 78.7705 599.841 73.7976C599.841 68.8928 599.466 65.078 598.717 62.3531C597.968 59.6282 596.503 57.7208 594.323 56.6308C592.143 55.4727 588.873 54.8937 584.513 54.8937C580.222 54.8937 576.952 55.4727 574.704 56.6308C572.524 57.7208 571.025 59.6282 570.208 62.3531C569.458 65.078 569.084 68.8928 569.084 73.7976C569.084 78.7705 569.458 82.6535 570.208 85.4465C571.025 88.1714 572.524 90.0788 574.704 91.1688C576.952 92.2587 580.222 92.8037 584.513 92.8037Z" fill="white"/>
<path d="M0.991211 76.5759H51.3201L84.4092 134.69H361.357" stroke="white" stroke-width="5.5612"/>
<path d="M498.453 11.5098H643.044L677.523 58.78H764" stroke="white" stroke-width="5.5612"/>
</svg>
