<svg width="202" height="320" viewBox="0 0 202 320" fill="none" xmlns="http://www.w3.org/2000/svg">
<path d="M117 232L184.5 188.5V83L117 18H63.5H22L10 0H63.5H126L201.5 76V198.5L126 250H117V232Z" fill="#EF0885"/>
<path d="M123.718 95H112V150H123.718L141.784 138.029C141.947 127.461 142.175 106.453 141.784 106.971C141.394 107.488 129.578 99.2059 123.718 95Z" fill="#EF0885"/>
<path d="M93.1744 320H37.5125H15.1387V305.5H82.806L94.2658 295H109V305.5L93.1744 320Z" fill="#EF0885"/>
<path d="M14.6344 320H66.1066H86.7964V305.5H24.2223L13.6251 295H9.15527e-05V305.5L14.6344 320Z" fill="#EF0885"/>
</svg>
