<svg width="871" height="768" viewBox="0 0 871 768" fill="none" xmlns="http://www.w3.org/2000/svg">
<rect x="0.946767" y="271.436" width="869.255" height="44.7744" stroke="#AF00AF" stroke-width="1.59666"/>
<rect x="0.946767" y="226.39" width="869.255" height="44.7744" stroke="#AF00AF" stroke-width="1.59666"/>
<rect x="0.946767" y="181.344" width="869.255" height="44.7744" stroke="#AF00AF" stroke-width="1.59666"/>
<rect x="0.946767" y="1.15917" width="869.255" height="44.7744" stroke="#AF00AF" stroke-width="1.59666"/>
<rect x="0.946767" y="91.2515" width="869.255" height="44.7744" stroke="#AF00AF" stroke-width="1.59666"/>
<rect x="0.946767" y="46.2053" width="869.255" height="44.7744" stroke="#AF00AF" stroke-width="1.59666"/>
<rect x="0.946767" y="136.298" width="869.255" height="44.7744" stroke="#AF00AF" stroke-width="1.59666"/>
<rect x="0.946767" y="316.482" width="869.255" height="44.7744" stroke="#AF00AF" stroke-width="1.59666"/>
<rect x="0.946767" y="631.805" width="869.255" height="44.7744" stroke="#AF00AF" stroke-width="1.59666"/>
<rect x="0.946767" y="586.759" width="869.255" height="44.7744" stroke="#AF00AF" stroke-width="1.59666"/>
<rect x="0.946767" y="541.713" width="869.255" height="44.7744" stroke="#AF00AF" stroke-width="1.59666"/>
<rect x="0.946767" y="361.528" width="869.255" height="44.7744" stroke="#AF00AF" stroke-width="1.59666"/>
<rect x="0.946767" y="451.621" width="869.255" height="44.7744" stroke="#AF00AF" stroke-width="1.59666"/>
<rect x="0.946767" y="406.574" width="869.255" height="44.7744" stroke="#AF00AF" stroke-width="1.59666"/>
<rect x="0.946767" y="496.667" width="869.255" height="44.7744" stroke="#AF00AF" stroke-width="1.59666"/>
<rect x="0.946767" y="676.852" width="869.255" height="44.7744" stroke="#AF00AF" stroke-width="1.59666"/>
<rect x="0.946767" y="721.898" width="869.255" height="44.7744" stroke="#AF00AF" stroke-width="1.59666"/>
<rect x="0.946767" y="1.15917" width="43.1432" height="765.513" stroke="#AF00AF" stroke-width="1.59666"/>
<rect x="87.9062" y="1.15905" width="43.1432" height="765.513" stroke="#AF00AF" stroke-width="1.59666"/>
<rect x="174.865" y="1.15905" width="43.1432" height="765.513" stroke="#AF00AF" stroke-width="1.59666"/>
<rect x="261.824" y="1.15905" width="43.1432" height="765.513" stroke="#AF00AF" stroke-width="1.59666"/>
<rect x="44.4263" y="1.15905" width="43.1432" height="765.513" stroke="#AF00AF" stroke-width="1.59666"/>
<rect x="131.385" y="1.15905" width="43.1432" height="765.513" stroke="#AF00AF" stroke-width="1.59666"/>
<rect x="218.345" y="1.15905" width="43.1432" height="765.513" stroke="#AF00AF" stroke-width="1.59666"/>
<rect x="305.304" y="1.15905" width="43.1432" height="765.513" stroke="#AF00AF" stroke-width="1.59666"/>
<rect x="348.783" y="1.15905" width="43.1432" height="765.513" stroke="#AF00AF" stroke-width="1.59666"/>
<rect x="435.742" y="1.15905" width="43.1432" height="765.513" stroke="#AF00AF" stroke-width="1.59666"/>
<rect x="522.702" y="1.15905" width="43.1432" height="765.513" stroke="#AF00AF" stroke-width="1.59666"/>
<rect x="696.62" y="1.15905" width="43.1432" height="765.513" stroke="#AF00AF" stroke-width="1.59666"/>
<rect x="609.661" y="1.15905" width="43.1432" height="765.513" stroke="#AF00AF" stroke-width="1.59666"/>
<rect x="783.579" y="1.15905" width="43.1432" height="765.513" stroke="#AF00AF" stroke-width="1.59666"/>
<rect x="392.263" y="1.15905" width="43.1432" height="765.513" stroke="#AF00AF" stroke-width="1.59666"/>
<rect x="479.222" y="1.15905" width="43.1432" height="765.513" stroke="#AF00AF" stroke-width="1.59666"/>
<rect x="566.182" y="1.15905" width="43.1432" height="765.513" stroke="#AF00AF" stroke-width="1.59666"/>
<rect x="740.099" y="1.15905" width="43.1432" height="765.513" stroke="#AF00AF" stroke-width="1.59666"/>
<rect x="653.14" y="1.15905" width="43.1432" height="765.513" stroke="#AF00AF" stroke-width="1.59666"/>
<rect x="827.059" y="1.15905" width="43.1432" height="765.513" stroke="#AF00AF" stroke-width="1.59666"/>
</svg>
