<svg width="1728" height="1261" viewBox="0 0 1728 1261" fill="none" xmlns="http://www.w3.org/2000/svg">
<path d="M-13.5 1199V1060.5L-15.5 1049H1771V1232.5H1728H1705V1211.5H1693V1163.5H1680V1190.5H1664V1261H1646V1221H1633V1190.5H1611V1103H1585V1139.5H1566.5V1200.5H1547.5V1232.5H1530V1261H1512V1241H1494.5V1167.5H1475V1211.5H1452V1135.5H1436V1163.5H1416V1186.5H1392.5V1158H1366V1113.5H1346.5V1144.5H1328V1211.5H1306.5V1190.5H1288.5V1211.5H1265.5V1241H1243.5V1224.5H1219.5V1190.5H1198V1211.5H1173.5V1163.5H1156V1190.5H1134V1173H1116.5V1139.5H1096.5V1211.5H1069.5V1177H1046.5V1200.5H1024.5V1144.5H1004V1190.5H980V1095H952.5V1173H932V1120.5H913.5V1149H883.5V1231H858.5V1177H834V1200.5H816.5V1139.5H788V1158H766V1135.5H744.5V1089.5H720.5V1113.5H697.5V1144.5H674V1186.5H659V1251.5H642V1181.5H624V1205.5H607.5V1224.5H590V1190.5H575V1167.5H559.5V1149H540.5V1181.5H522.5V1154V1089.5H503.5V1135.5H484.5V1113.5H468.5V1144.5H454.5V1224.5H440V1181.5H419.5V1211.5H399.5V1158H380.5V1089.5H364V1127.5H330V1144.5H310V1158H291.5V1181.5H270.5V1158H256V1127.5H241V1104.5H226V1089.5H204.5V1113.5H188V1127.5H165.5V1144.5H148V1224.5H134.5V1199H125V1251.5H108V1154H86.5V1089.5H64V1135.5H32.5V1158H9.5V1199H-13.5Z" fill="#FEC9FF"/>
<rect x="-46" width="1794" height="1056" fill="#FEC9FF"/>
<path d="M1092 102H608.5L-32.5 688V1154.5L1092 102Z" fill="#EF0885"/>
</svg>
