<svg width="78" height="373" viewBox="0 0 78 373" fill="none" xmlns="http://www.w3.org/2000/svg">
<path d="M64.3023 10.954V17.7812C62.1637 17.6166 59.5315 17.4521 56.7348 17.4521C52.1286 17.4521 32.9632 17.4521 28.3569 17.4521C26.0538 17.4521 23.1749 17.6166 20.7072 17.7812V10.954C23.0926 11.2008 26.0538 11.3653 28.3569 11.3653C32.9632 11.3653 52.1286 11.3653 56.8993 11.3653C59.5315 11.3653 61.9991 11.2008 64.3023 10.954ZM74.0906 31.6V38.4271C71.8697 38.2626 69.4021 38.1803 66.9344 38.1803C62.1637 38.1803 17.4993 38.1803 13.1398 38.1803C11.0834 38.1803 8.45128 38.2626 6.64167 38.4271V31.6C8.69804 31.8467 11.4125 32.0112 13.1398 32.0112C17.4993 32.0112 62.1637 32.0112 66.9344 32.0112C69.4843 32.0112 71.8697 31.8467 74.0906 31.6ZM35.3486 34.8901L42.258 34.9724C42.3402 44.0204 42.916 52.0814 47.0288 58.5795C50.319 63.8438 56.2413 68.5324 62.5749 71.2468L56.4881 75.6885C49.4964 72.1516 43.3273 66.2292 40.2839 60.7182C36.6647 53.8087 35.3486 45.2543 35.3486 34.8901ZM16.43 4.20911L20.7895 6.10097C18.5686 9.22665 15.772 14.1619 14.2091 17.4521L9.76735 15.478C11.4125 12.1878 14.3736 7.17029 16.43 4.20911ZM7.46422 0.91892L11.7415 2.81078C9.43833 5.85421 6.72393 10.5427 4.91432 14.0797L0.554818 12.1056C2.11766 9.06215 5.24334 3.96235 7.46422 0.91892ZM15.5252 108.322L19.4734 109.556C17.8283 112.681 15.9365 117.617 14.7849 121.071L10.6722 119.673C11.8237 116.383 13.9623 111.283 15.5252 108.322ZM7.29971 105.772L11.3302 107.006C9.60285 110.131 7.79324 114.82 6.47716 118.521L2.36442 117.123C3.59824 113.833 5.73687 108.815 7.29971 105.772ZM23.3394 134.726V115.231C23.3394 112.023 23.0104 109.309 22.9281 108.486H30.331C30.1665 109.309 29.9198 112.023 29.9198 115.231V135.219C29.9198 158.251 37.405 165.324 52.3753 171.082L46.782 176.264C28.0279 167.874 23.3394 156.605 23.3394 134.726ZM52.9511 109.062H60.2718C60.025 110.872 59.9428 113.257 59.9428 114.984V145.172C59.9428 148.298 60.1895 151.752 60.2718 152.575H53.0334C53.1156 151.752 53.3624 148.133 53.3624 145.172V114.984C53.3624 112.106 53.0334 109.802 52.9511 109.062ZM77.0518 125.02V132.093C76.0647 132.011 72.3632 131.847 68.744 131.847H14.2914C10.6722 131.847 7.62873 131.929 6.72393 132.093V125.102C7.87549 125.266 10.6722 125.513 14.2914 125.513H68.744C72.281 125.513 76.3115 125.102 77.0518 125.02ZM73.9261 241.306L70.7182 247.722C57.4751 243.609 44.3966 237.605 35.3486 232.011C25.7248 226.007 17.088 219.097 10.0141 211.777L15.5252 206.595C21.2008 213.504 29.4262 220.578 38.063 226.007C47.1933 231.682 59.696 237.522 73.9261 241.306ZM39.3791 229.379V264.831C39.3791 267.874 39.6258 271.987 39.8726 273.55H31.7294C32.1407 271.987 32.3052 267.874 32.3052 264.831V227.24L39.3791 229.379ZM62.3282 310.789L67.0989 315.807C60.9298 319.838 50.7302 328.721 46.5352 332.998L41.4354 327.734C45.9595 323.21 56.5703 314.655 62.3282 310.789ZM69.4021 365.9L65.1248 372.645C51.3883 370.095 41.0242 364.995 32.7164 359.813C20.296 351.999 10.7544 340.812 5.16109 330.613L9.10932 323.539C13.8801 333.739 23.8329 345.912 36.5824 353.891C44.3966 358.744 55.0897 363.762 69.4021 365.9Z" fill="white"/>
</svg>
